<?xml version="1.0" encoding="utf-8"?>
<svg xmlns="http://www.w3.org/2000/svg" version="1.2" viewBox="-84.311190 -39.857120 0.218250 0.154480" viewport-fill="lightblue" style="background-color:lightblue;">
  <g stroke="rgba(0,0,0,0.5)" stroke-width="0.25%" fill="beige">
    <!--
        PointReduction\Algorithms\Lang::apply($givenPoints, 0.001);
        Original 2151 points reduced to 293
    -->
    <path d="M -84.158640 -39.822480 L -84.158790 -39.820130, -84.145360 -39.821520, -84.146270 -39.818460, -84.148680 -39.817290, -84.144660 -39.818910, -84.143390 -39.822530, -84.140260 -39.822710, -84.139690 -39.826310, -84.135840 -39.826120, -84.136920 -39.822810, -84.143150 -39.820350, -84.143000 -39.818740, -84.132740 -39.818750, -84.128020 -39.818460, -84.125590 -39.820700, -84.119170 -39.821440, -84.118120 -39.825260, -84.109510 -39.825570, -84.112860 -39.827170, -84.111640 -39.832190, -84.106840 -39.831860, -84.108840 -39.836700, -84.098020 -39.838650, -84.092940 -39.838340, -84.095430 -39.817980, -84.104430 -39.818180, -84.105140 -39.820460, -84.105870 -39.817310, -84.110170 -39.816330, -84.113790 -39.813840, -84.114550 -39.817040, -84.119270 -39.818190, -84.119570 -39.814400, -84.123130 -39.814490, -84.123460 -39.810800, -84.118880 -39.810550, -84.118690 -39.808590, -84.130290 -39.811210, -84.142530 -39.813460, -84.147070 -39.814970, -84.150140 -39.813410, -84.149700 -39.811920, -84.152730 -39.811800, -84.150440 -39.809650, -84.158240 -39.800050, -84.164640 -39.798050, -84.160920 -39.797480, -84.162330 -39.796320, -84.155060 -39.799850, -84.154190 -39.794660, -84.155660 -39.792560, -84.147760 -39.792480, -84.147290 -39.790340, -84.141320 -39.787650, -84.115190 -39.797480, -84.117210 -39.801160, -84.114040 -39.802960, -84.110440 -39.802650, -84.112800 -39.807770, -84.109290 -39.809760, -84.097680 -39.809190, -84.095750 -39.809170, -84.097680 -39.793460, -84.138190 -39.778080, -84.131710 -39.773520, -84.127700 -39.772680, -84.127880 -39.769540, -84.134480 -39.772140, -84.136960 -39.765330, -84.137190 -39.763150, -84.127190 -39.762670, -84.126190 -39.759900, -84.122040 -39.759380, -84.123320 -39.757350, -84.120250 -39.756250, -84.120640 -39.746530, -84.127950 -39.747790, -84.123500 -39.745940, -84.129370 -39.742050, -84.129910 -39.737570, -84.108720 -39.736800, -84.109850 -39.729060, -84.119380 -39.729910, -84.119740 -39.727760, -84.130040 -39.727150, -84.130540 -39.722660, -84.136140 -39.721420, -84.136430 -39.722750, -84.141290 -39.722500, -84.142070 -39.720960, -84.152730 -39.720970, -84.153790 -39.716940, -84.160920 -39.718210, -84.164540 -39.731050, -84.174000 -39.734320, -84.188590 -39.732030, -84.196560 -39.727560, -84.204050 -39.728670, -84.204490 -39.726340, -84.206920 -39.726860, -84.205900 -39.728860, -84.210440 -39.729450, -84.215470 -39.732470, -84.223340 -39.728150, -84.227350 -39.723520, -84.228140 -39.714750, -84.236440 -39.703150, -84.252230 -39.702990, -84.253350 -39.720550, -84.263590 -39.719320, -84.263510 -39.715270, -84.261480 -39.715190, -84.261610 -39.712700, -84.258300 -39.712350, -84.259640 -39.707260, -84.264340 -39.705830, -84.263270 -39.702890, -84.280870 -39.702640, -84.279070 -39.706260, -84.279610 -39.709900, -84.276700 -39.710810, -84.277250 -39.712510, -84.275550 -39.714490, -84.280510 -39.717650, -84.279300 -39.719200, -84.284020 -39.716890, -84.281060 -39.716530, -84.281000 -39.713240, -84.290830 -39.714740, -84.290240 -39.716840, -84.287270 -39.716890, -84.286360 -39.721880, -84.280770 -39.720110, -84.277350 -39.720170, -84.275210 -39.719010, -84.276530 -39.715260, -84.271340 -39.716940, -84.273420 -39.720800, -84.263310 -39.721500, -84.263310 -39.722960, -84.268350 -39.722580, -84.267730 -39.725570, -84.263640 -39.727840, -84.263590 -39.725690, -84.259440 -39.726270, -84.260380 -39.729320, -84.257350 -39.731280, -84.267270 -39.732040, -84.267990 -39.729040, -84.269050 -39.730250, -84.268160 -39.733050, -84.279750 -39.732600, -84.279770 -39.735900, -84.281070 -39.737310, -84.268290 -39.739610, -84.268620 -39.742850, -84.271450 -39.742830, -84.271790 -39.747970, -84.273860 -39.749120, -84.268630 -39.750380, -84.267490 -39.754240, -84.267040 -39.754450, -84.275850 -39.754540, -84.278980 -39.750270, -84.282410 -39.750670, -84.282170 -39.759160, -84.276390 -39.760150, -84.278090 -39.761320, -84.285800 -39.760230, -84.285090 -39.762540, -84.291860 -39.764260, -84.292400 -39.770140, -84.297660 -39.770070, -84.297660 -39.764490, -84.292390 -39.764460, -84.292420 -39.762790, -84.301840 -39.761420, -84.301770 -39.763090, -84.310610 -39.763020, -84.311190 -39.775830, -84.308910 -39.775850, -84.308760 -39.772470, -84.302160 -39.772720, -84.301270 -39.775870, -84.292470 -39.776040, -84.292480 -39.777380, -84.306770 -39.778610, -84.307700 -39.780120, -84.306380 -39.780620, -84.306800 -39.781540, -84.301930 -39.781200, -84.301920 -39.783840, -84.282980 -39.784160, -84.282910 -39.785650, -84.264610 -39.779550, -84.270600 -39.787630, -84.271780 -39.794680, -84.268380 -39.795290, -84.268500 -39.797110, -84.270660 -39.797780, -84.261570 -39.799990, -84.253450 -39.799840, -84.252150 -39.796150, -84.252610 -39.789080, -84.244040 -39.788260, -84.243840 -39.792220, -84.242210 -39.791150, -84.239550 -39.791250, -84.238930 -39.798250, -84.244790 -39.799170, -84.243800 -39.802460, -84.240090 -39.802430, -84.238890 -39.805270, -84.235020 -39.805090, -84.235740 -39.801960, -84.238930 -39.801400, -84.235180 -39.800970, -84.234180 -39.798290, -84.230300 -39.798350, -84.229510 -39.794230, -84.235150 -39.793450, -84.233860 -39.792160, -84.229940 -39.791050, -84.229840 -39.794070, -84.220060 -39.794290, -84.222220 -39.795160, -84.219740 -39.800420, -84.205650 -39.800350, -84.206460 -39.808730, -84.220160 -39.816120, -84.222250 -39.818350, -84.222920 -39.826560, -84.211130 -39.828590, -84.210270 -39.834170, -84.207700 -39.834200, -84.207830 -39.837890, -84.198960 -39.837120, -84.201290 -39.834650, -84.202800 -39.822740, -84.205510 -39.821770, -84.200950 -39.819610, -84.200620 -39.817280, -84.201450 -39.816350, -84.198650 -39.812220, -84.198390 -39.807640, -84.197150 -39.805990, -84.197900 -39.804740, -84.196030 -39.803580, -84.193170 -39.793460, -84.196630 -39.792440, -84.194240 -39.787750, -84.176520 -39.798110, -84.177220 -39.799770, -84.185140 -39.797350, -84.183940 -39.800700, -84.181140 -39.801870, -84.179350 -39.801960, -84.179940 -39.803720, -84.175680 -39.806480, -84.177080 -39.805680, -84.176440 -39.813250, -84.179330 -39.814000, -84.179420 -39.817880, -84.176050 -39.817860, -84.176040 -39.820400, -84.178410 -39.820630, -84.179520 -39.822730, -84.176750 -39.823650, -84.179610 -39.826940, -84.177540 -39.827160, -84.177840 -39.834550, -84.176040 -39.834550, -84.172240 -39.842150, -84.172940 -39.845350, -84.167820 -39.845120, -84.167680 -39.850240, -84.172390 -39.850690, -84.173710 -39.848550, -84.170310 -39.857120, -84.157590 -39.856570, -84.159490 -39.841730, -84.162320 -39.841880, -84.163610 -39.830470, -84.158540 -39.830550, -84.168440 -39.826050, -84.166070 -39.824680, -84.167200 -39.820090, -84.164700 -39.821210, -84.165460 -39.822080, -84.165060 -39.826110, -84.159560 -39.823750, -84.158640 -39.822480 Z"/>
  </g>
</svg>
