<?xml version="1.0" encoding="utf-8"?>
<svg xmlns="http://www.w3.org/2000/svg" version="1.2" viewBox="-84.311380 -39.857140 0.218440 0.155250" viewport-fill="lightblue" style="background-color:lightblue;">
  <g stroke="rgba(0,0,0,0.5)" stroke-width="0.25%" fill="beige">
    <!--
        PointReduction\Algorithms\VisvalingamWhyatt::apply($givenPoints, 343);
        Original 2151 points reduced to 343
    -->
    <path d="M -84.158640 -39.822480 L -84.159250 -39.820120, -84.154620 -39.820100, -84.153180 -39.821360, -84.151340 -39.820100, -84.145310 -39.821800, -84.146460 -39.817270, -84.144660 -39.818910, -84.144440 -39.822150, -84.140260 -39.822710, -84.140040 -39.826340, -84.135840 -39.826120, -84.136260 -39.822780, -84.138550 -39.821260, -84.142960 -39.821390, -84.143000 -39.818740, -84.128140 -39.818350, -84.125590 -39.820700, -84.119320 -39.820470, -84.118890 -39.825310, -84.109650 -39.824760, -84.110680 -39.826920, -84.112860 -39.827170, -84.111640 -39.832190, -84.106840 -39.831860, -84.106820 -39.833830, -84.109350 -39.835420, -84.107910 -39.837620, -84.102140 -39.837370, -84.101990 -39.838880, -84.092940 -39.838340, -84.094940 -39.817940, -84.104430 -39.818180, -84.105780 -39.820460, -84.105870 -39.817310, -84.109940 -39.817350, -84.112940 -39.813640, -84.114500 -39.814580, -84.113700 -39.816900, -84.119270 -39.818190, -84.119570 -39.814400, -84.123130 -39.814490, -84.123460 -39.810800, -84.118880 -39.810550, -84.118690 -39.808590, -84.122870 -39.808740, -84.124200 -39.810840, -84.136850 -39.811470, -84.136870 -39.812740, -84.142650 -39.812920, -84.142620 -39.814130, -84.149960 -39.814370, -84.149700 -39.811920, -84.152730 -39.811800, -84.150440 -39.809650, -84.153040 -39.804950, -84.158240 -39.800050, -84.164640 -39.798050, -84.160280 -39.797990, -84.161080 -39.795850, -84.156680 -39.799960, -84.153710 -39.797820, -84.153660 -39.795100, -84.155660 -39.792560, -84.147760 -39.792560, -84.147900 -39.790400, -84.144980 -39.790140, -84.142110 -39.787260, -84.136480 -39.789880, -84.115190 -39.797480, -84.117310 -39.800240, -84.115190 -39.803220, -84.110270 -39.802140, -84.113100 -39.807610, -84.109290 -39.809760, -84.095750 -39.809170, -84.096940 -39.793710, -84.131550 -39.781630, -84.130100 -39.780140, -84.138410 -39.778360, -84.134790 -39.775910, -84.133100 -39.773530, -84.127700 -39.772680, -84.127880 -39.769540, -84.129380 -39.770940, -84.135430 -39.771730, -84.136690 -39.768460, -84.137190 -39.763150, -84.127190 -39.762670, -84.126190 -39.759900, -84.121940 -39.759500, -84.123320 -39.757350, -84.120210 -39.757130, -84.119860 -39.751390, -84.120640 -39.746530, -84.128080 -39.748310, -84.123500 -39.745940, -84.125520 -39.743510, -84.128410 -39.743620, -84.130590 -39.737600, -84.111620 -39.736610, -84.108720 -39.736800, -84.109850 -39.729060, -84.114820 -39.729400, -84.119310 -39.730500, -84.119740 -39.727760, -84.129740 -39.728150, -84.130540 -39.722660, -84.141260 -39.723120, -84.141450 -39.720960, -84.152730 -39.720970, -84.153190 -39.716930, -84.160920 -39.717360, -84.163540 -39.724750, -84.164540 -39.731050, -84.166950 -39.732810, -84.172770 -39.734520, -84.183620 -39.732700, -84.184080 -39.733480, -84.188590 -39.732030, -84.194080 -39.727850, -84.196150 -39.727560, -84.204050 -39.728670, -84.204490 -39.726340, -84.206970 -39.726540, -84.205900 -39.728860, -84.210710 -39.729090, -84.212070 -39.731520, -84.216730 -39.732270, -84.223340 -39.728150, -84.227350 -39.723520, -84.228140 -39.714750, -84.235340 -39.703150, -84.252230 -39.702990, -84.252290 -39.714060, -84.253120 -39.714070, -84.253350 -39.720550, -84.263590 -39.719320, -84.263510 -39.715270, -84.261480 -39.715190, -84.261610 -39.712700, -84.258390 -39.712740, -84.257890 -39.711300, -84.259640 -39.707260, -84.264340 -39.705830, -84.263400 -39.702870, -84.267170 -39.701890, -84.272030 -39.702680, -84.280870 -39.702640, -84.278930 -39.704370, -84.279610 -39.709900, -84.277030 -39.709730, -84.277340 -39.712410, -84.275550 -39.714490, -84.278060 -39.715540, -84.277500 -39.716900, -84.280850 -39.716860, -84.281000 -39.713240, -84.285300 -39.713270, -84.285330 -39.714510, -84.290830 -39.714490, -84.290700 -39.716840, -84.287270 -39.716890, -84.287300 -39.721870, -84.284060 -39.721910, -84.284050 -39.720150, -84.279640 -39.720690, -84.275210 -39.719010, -84.276530 -39.715260, -84.273420 -39.715350, -84.271310 -39.717600, -84.273420 -39.720800, -84.263310 -39.721500, -84.263310 -39.722960, -84.268350 -39.722580, -84.267740 -39.725590, -84.265640 -39.725610, -84.263640 -39.727840, -84.263590 -39.725690, -84.259440 -39.726270, -84.260380 -39.729320, -84.257120 -39.730320, -84.258260 -39.732130, -84.267270 -39.732040, -84.267050 -39.729050, -84.269050 -39.729050, -84.269100 -39.732290, -84.277380 -39.731940, -84.279310 -39.732520, -84.281070 -39.737310, -84.275770 -39.737310, -84.275740 -39.739160, -84.268290 -39.739610, -84.268380 -39.742850, -84.271450 -39.742830, -84.271790 -39.747970, -84.273860 -39.749120, -84.268650 -39.749590, -84.268250 -39.754650, -84.275850 -39.754540, -84.277890 -39.750240, -84.282380 -39.750250, -84.282170 -39.759160, -84.277650 -39.758950, -84.276460 -39.761330, -84.285840 -39.759690, -84.285090 -39.762540, -84.289130 -39.762580, -84.289210 -39.764300, -84.291860 -39.764260, -84.292140 -39.770130, -84.297660 -39.770070, -84.297660 -39.764490, -84.292390 -39.764460, -84.292420 -39.762790, -84.296200 -39.761390, -84.301840 -39.761420, -84.301770 -39.763090, -84.310610 -39.763020, -84.311380 -39.775840, -84.308910 -39.775850, -84.308760 -39.772470, -84.302160 -39.772720, -84.302210 -39.775870, -84.292470 -39.775920, -84.292480 -39.777380, -84.300320 -39.777120, -84.304750 -39.779210, -84.306770 -39.778610, -84.306800 -39.781540, -84.301930 -39.781200, -84.301920 -39.783840, -84.282980 -39.784160, -84.282910 -39.785650, -84.264670 -39.778630, -84.264590 -39.780060, -84.270600 -39.787630, -84.270850 -39.794050, -84.268380 -39.795290, -84.268830 -39.798790, -84.263540 -39.798940, -84.263690 -39.800080, -84.253450 -39.800150, -84.253650 -39.797960, -84.251360 -39.796650, -84.252950 -39.794830, -84.253150 -39.789660, -84.251600 -39.788280, -84.244040 -39.788260, -84.243950 -39.791160, -84.239550 -39.791250, -84.238480 -39.793660, -84.238930 -39.798250, -84.244790 -39.798440, -84.244740 -39.802760, -84.240330 -39.801760, -84.238890 -39.805270, -84.235640 -39.804560, -84.235670 -39.802460, -84.238860 -39.800980, -84.235180 -39.800970, -84.235220 -39.798290, -84.230300 -39.798350, -84.229510 -39.794230, -84.235150 -39.793450, -84.235120 -39.792150, -84.230980 -39.791750, -84.230460 -39.793750, -84.225840 -39.794280, -84.222120 -39.793570, -84.222250 -39.797310, -84.220220 -39.797360, -84.219740 -39.800420, -84.205650 -39.800350, -84.205450 -39.805950, -84.206460 -39.808730, -84.218050 -39.814250, -84.222250 -39.818350, -84.221950 -39.820250, -84.223220 -39.826560, -84.215050 -39.826940, -84.215050 -39.828590, -84.211130 -39.828590, -84.210930 -39.834210, -84.207700 -39.834200, -84.207830 -39.837890, -84.198680 -39.837920, -84.201320 -39.835870, -84.201430 -39.827340, -84.202840 -39.827320, -84.202800 -39.822740, -84.205510 -39.822750, -84.205440 -39.820870, -84.201500 -39.820750, -84.200250 -39.817470, -84.201450 -39.816350, -84.198050 -39.812550, -84.199350 -39.811650, -84.197150 -39.807650, -84.193500 -39.797470, -84.193170 -39.793460, -84.196680 -39.793440, -84.195570 -39.788330, -84.194240 -39.787750, -84.176740 -39.796960, -84.176470 -39.800200, -84.185140 -39.797350, -84.185140 -39.800090, -84.181140 -39.801870, -84.177080 -39.805680, -84.175560 -39.813150, -84.179320 -39.813240, -84.179420 -39.817880, -84.176050 -39.817860, -84.176040 -39.820400, -84.179470 -39.820580, -84.179540 -39.823530, -84.177810 -39.823650, -84.177840 -39.834550, -84.176040 -39.834550, -84.175440 -39.836950, -84.172410 -39.840360, -84.173540 -39.845150, -84.167860 -39.844150, -84.167680 -39.850240, -84.172390 -39.850690, -84.170420 -39.857140, -84.157590 -39.856570, -84.157670 -39.852920, -84.158790 -39.852350, -84.159250 -39.848140, -84.158660 -39.841730, -84.162320 -39.841880, -84.163610 -39.830470, -84.158540 -39.831050, -84.168640 -39.826650, -84.165900 -39.825150, -84.167550 -39.820080, -84.164710 -39.820110, -84.166160 -39.823120, -84.165060 -39.826110, -84.161420 -39.825510, -84.158640 -39.822480 Z"/>
  </g>
  <g fill="red">
      <circle cx="-84.158640" cy="-39.822480" r="0.0005" />
      <circle cx="-84.159250" cy="-39.820120" r="0.0005" />
      <circle cx="-84.154620" cy="-39.820100" r="0.0005" />
      <circle cx="-84.153180" cy="-39.821360" r="0.0005" />
      <circle cx="-84.151340" cy="-39.820100" r="0.0005" />
      <circle cx="-84.145310" cy="-39.821800" r="0.0005" />
      <circle cx="-84.146460" cy="-39.817270" r="0.0005" />
      <circle cx="-84.144660" cy="-39.818910" r="0.0005" />
      <circle cx="-84.144440" cy="-39.822150" r="0.0005" />
      <circle cx="-84.140260" cy="-39.822710" r="0.0005" />
      <circle cx="-84.140040" cy="-39.826340" r="0.0005" />
      <circle cx="-84.135840" cy="-39.826120" r="0.0005" />
      <circle cx="-84.136260" cy="-39.822780" r="0.0005" />
      <circle cx="-84.138550" cy="-39.821260" r="0.0005" />
      <circle cx="-84.142960" cy="-39.821390" r="0.0005" />
      <circle cx="-84.143000" cy="-39.818740" r="0.0005" />
      <circle cx="-84.128140" cy="-39.818350" r="0.0005" />
      <circle cx="-84.125590" cy="-39.820700" r="0.0005" />
      <circle cx="-84.119320" cy="-39.820470" r="0.0005" />
      <circle cx="-84.118890" cy="-39.825310" r="0.0005" />
      <circle cx="-84.109650" cy="-39.824760" r="0.0005" />
      <circle cx="-84.110680" cy="-39.826920" r="0.0005" />
      <circle cx="-84.112860" cy="-39.827170" r="0.0005" />
      <circle cx="-84.111640" cy="-39.832190" r="0.0005" />
      <circle cx="-84.106840" cy="-39.831860" r="0.0005" />
      <circle cx="-84.106820" cy="-39.833830" r="0.0005" />
      <circle cx="-84.109350" cy="-39.835420" r="0.0005" />
      <circle cx="-84.107910" cy="-39.837620" r="0.0005" />
      <circle cx="-84.102140" cy="-39.837370" r="0.0005" />
      <circle cx="-84.101990" cy="-39.838880" r="0.0005" />
      <circle cx="-84.092940" cy="-39.838340" r="0.0005" />
      <circle cx="-84.094940" cy="-39.817940" r="0.0005" />
      <circle cx="-84.104430" cy="-39.818180" r="0.0005" />
      <circle cx="-84.105780" cy="-39.820460" r="0.0005" />
      <circle cx="-84.105870" cy="-39.817310" r="0.0005" />
      <circle cx="-84.109940" cy="-39.817350" r="0.0005" />
      <circle cx="-84.112940" cy="-39.813640" r="0.0005" />
      <circle cx="-84.114500" cy="-39.814580" r="0.0005" />
      <circle cx="-84.113700" cy="-39.816900" r="0.0005" />
      <circle cx="-84.119270" cy="-39.818190" r="0.0005" />
      <circle cx="-84.119570" cy="-39.814400" r="0.0005" />
      <circle cx="-84.123130" cy="-39.814490" r="0.0005" />
      <circle cx="-84.123460" cy="-39.810800" r="0.0005" />
      <circle cx="-84.118880" cy="-39.810550" r="0.0005" />
      <circle cx="-84.118690" cy="-39.808590" r="0.0005" />
      <circle cx="-84.122870" cy="-39.808740" r="0.0005" />
      <circle cx="-84.124200" cy="-39.810840" r="0.0005" />
      <circle cx="-84.136850" cy="-39.811470" r="0.0005" />
      <circle cx="-84.136870" cy="-39.812740" r="0.0005" />
      <circle cx="-84.142650" cy="-39.812920" r="0.0005" />
      <circle cx="-84.142620" cy="-39.814130" r="0.0005" />
      <circle cx="-84.149960" cy="-39.814370" r="0.0005" />
      <circle cx="-84.149700" cy="-39.811920" r="0.0005" />
      <circle cx="-84.152730" cy="-39.811800" r="0.0005" />
      <circle cx="-84.150440" cy="-39.809650" r="0.0005" />
      <circle cx="-84.153040" cy="-39.804950" r="0.0005" />
      <circle cx="-84.158240" cy="-39.800050" r="0.0005" />
      <circle cx="-84.164640" cy="-39.798050" r="0.0005" />
      <circle cx="-84.160280" cy="-39.797990" r="0.0005" />
      <circle cx="-84.161080" cy="-39.795850" r="0.0005" />
      <circle cx="-84.156680" cy="-39.799960" r="0.0005" />
      <circle cx="-84.153710" cy="-39.797820" r="0.0005" />
      <circle cx="-84.153660" cy="-39.795100" r="0.0005" />
      <circle cx="-84.155660" cy="-39.792560" r="0.0005" />
      <circle cx="-84.147760" cy="-39.792560" r="0.0005" />
      <circle cx="-84.147900" cy="-39.790400" r="0.0005" />
      <circle cx="-84.144980" cy="-39.790140" r="0.0005" />
      <circle cx="-84.142110" cy="-39.787260" r="0.0005" />
      <circle cx="-84.136480" cy="-39.789880" r="0.0005" />
      <circle cx="-84.115190" cy="-39.797480" r="0.0005" />
      <circle cx="-84.117310" cy="-39.800240" r="0.0005" />
      <circle cx="-84.115190" cy="-39.803220" r="0.0005" />
      <circle cx="-84.110270" cy="-39.802140" r="0.0005" />
      <circle cx="-84.113100" cy="-39.807610" r="0.0005" />
      <circle cx="-84.109290" cy="-39.809760" r="0.0005" />
      <circle cx="-84.095750" cy="-39.809170" r="0.0005" />
      <circle cx="-84.096940" cy="-39.793710" r="0.0005" />
      <circle cx="-84.131550" cy="-39.781630" r="0.0005" />
      <circle cx="-84.130100" cy="-39.780140" r="0.0005" />
      <circle cx="-84.138410" cy="-39.778360" r="0.0005" />
      <circle cx="-84.134790" cy="-39.775910" r="0.0005" />
      <circle cx="-84.133100" cy="-39.773530" r="0.0005" />
      <circle cx="-84.127700" cy="-39.772680" r="0.0005" />
      <circle cx="-84.127880" cy="-39.769540" r="0.0005" />
      <circle cx="-84.129380" cy="-39.770940" r="0.0005" />
      <circle cx="-84.135430" cy="-39.771730" r="0.0005" />
      <circle cx="-84.136690" cy="-39.768460" r="0.0005" />
      <circle cx="-84.137190" cy="-39.763150" r="0.0005" />
      <circle cx="-84.127190" cy="-39.762670" r="0.0005" />
      <circle cx="-84.126190" cy="-39.759900" r="0.0005" />
      <circle cx="-84.121940" cy="-39.759500" r="0.0005" />
      <circle cx="-84.123320" cy="-39.757350" r="0.0005" />
      <circle cx="-84.120210" cy="-39.757130" r="0.0005" />
      <circle cx="-84.119860" cy="-39.751390" r="0.0005" />
      <circle cx="-84.120640" cy="-39.746530" r="0.0005" />
      <circle cx="-84.128080" cy="-39.748310" r="0.0005" />
      <circle cx="-84.123500" cy="-39.745940" r="0.0005" />
      <circle cx="-84.125520" cy="-39.743510" r="0.0005" />
      <circle cx="-84.128410" cy="-39.743620" r="0.0005" />
      <circle cx="-84.130590" cy="-39.737600" r="0.0005" />
      <circle cx="-84.111620" cy="-39.736610" r="0.0005" />
      <circle cx="-84.108720" cy="-39.736800" r="0.0005" />
      <circle cx="-84.109850" cy="-39.729060" r="0.0005" />
      <circle cx="-84.114820" cy="-39.729400" r="0.0005" />
      <circle cx="-84.119310" cy="-39.730500" r="0.0005" />
      <circle cx="-84.119740" cy="-39.727760" r="0.0005" />
      <circle cx="-84.129740" cy="-39.728150" r="0.0005" />
      <circle cx="-84.130540" cy="-39.722660" r="0.0005" />
      <circle cx="-84.141260" cy="-39.723120" r="0.0005" />
      <circle cx="-84.141450" cy="-39.720960" r="0.0005" />
      <circle cx="-84.152730" cy="-39.720970" r="0.0005" />
      <circle cx="-84.153190" cy="-39.716930" r="0.0005" />
      <circle cx="-84.160920" cy="-39.717360" r="0.0005" />
      <circle cx="-84.163540" cy="-39.724750" r="0.0005" />
      <circle cx="-84.164540" cy="-39.731050" r="0.0005" />
      <circle cx="-84.166950" cy="-39.732810" r="0.0005" />
      <circle cx="-84.172770" cy="-39.734520" r="0.0005" />
      <circle cx="-84.183620" cy="-39.732700" r="0.0005" />
      <circle cx="-84.184080" cy="-39.733480" r="0.0005" />
      <circle cx="-84.188590" cy="-39.732030" r="0.0005" />
      <circle cx="-84.194080" cy="-39.727850" r="0.0005" />
      <circle cx="-84.196150" cy="-39.727560" r="0.0005" />
      <circle cx="-84.204050" cy="-39.728670" r="0.0005" />
      <circle cx="-84.204490" cy="-39.726340" r="0.0005" />
      <circle cx="-84.206970" cy="-39.726540" r="0.0005" />
      <circle cx="-84.205900" cy="-39.728860" r="0.0005" />
      <circle cx="-84.210710" cy="-39.729090" r="0.0005" />
      <circle cx="-84.212070" cy="-39.731520" r="0.0005" />
      <circle cx="-84.216730" cy="-39.732270" r="0.0005" />
      <circle cx="-84.223340" cy="-39.728150" r="0.0005" />
      <circle cx="-84.227350" cy="-39.723520" r="0.0005" />
      <circle cx="-84.228140" cy="-39.714750" r="0.0005" />
      <circle cx="-84.235340" cy="-39.703150" r="0.0005" />
      <circle cx="-84.252230" cy="-39.702990" r="0.0005" />
      <circle cx="-84.252290" cy="-39.714060" r="0.0005" />
      <circle cx="-84.253120" cy="-39.714070" r="0.0005" />
      <circle cx="-84.253350" cy="-39.720550" r="0.0005" />
      <circle cx="-84.263590" cy="-39.719320" r="0.0005" />
      <circle cx="-84.263510" cy="-39.715270" r="0.0005" />
      <circle cx="-84.261480" cy="-39.715190" r="0.0005" />
      <circle cx="-84.261610" cy="-39.712700" r="0.0005" />
      <circle cx="-84.258390" cy="-39.712740" r="0.0005" />
      <circle cx="-84.257890" cy="-39.711300" r="0.0005" />
      <circle cx="-84.259640" cy="-39.707260" r="0.0005" />
      <circle cx="-84.264340" cy="-39.705830" r="0.0005" />
      <circle cx="-84.263400" cy="-39.702870" r="0.0005" />
      <circle cx="-84.267170" cy="-39.701890" r="0.0005" />
      <circle cx="-84.272030" cy="-39.702680" r="0.0005" />
      <circle cx="-84.280870" cy="-39.702640" r="0.0005" />
      <circle cx="-84.278930" cy="-39.704370" r="0.0005" />
      <circle cx="-84.279610" cy="-39.709900" r="0.0005" />
      <circle cx="-84.277030" cy="-39.709730" r="0.0005" />
      <circle cx="-84.277340" cy="-39.712410" r="0.0005" />
      <circle cx="-84.275550" cy="-39.714490" r="0.0005" />
      <circle cx="-84.278060" cy="-39.715540" r="0.0005" />
      <circle cx="-84.277500" cy="-39.716900" r="0.0005" />
      <circle cx="-84.280850" cy="-39.716860" r="0.0005" />
      <circle cx="-84.281000" cy="-39.713240" r="0.0005" />
      <circle cx="-84.285300" cy="-39.713270" r="0.0005" />
      <circle cx="-84.285330" cy="-39.714510" r="0.0005" />
      <circle cx="-84.290830" cy="-39.714490" r="0.0005" />
      <circle cx="-84.290700" cy="-39.716840" r="0.0005" />
      <circle cx="-84.287270" cy="-39.716890" r="0.0005" />
      <circle cx="-84.287300" cy="-39.721870" r="0.0005" />
      <circle cx="-84.284060" cy="-39.721910" r="0.0005" />
      <circle cx="-84.284050" cy="-39.720150" r="0.0005" />
      <circle cx="-84.279640" cy="-39.720690" r="0.0005" />
      <circle cx="-84.275210" cy="-39.719010" r="0.0005" />
      <circle cx="-84.276530" cy="-39.715260" r="0.0005" />
      <circle cx="-84.273420" cy="-39.715350" r="0.0005" />
      <circle cx="-84.271310" cy="-39.717600" r="0.0005" />
      <circle cx="-84.273420" cy="-39.720800" r="0.0005" />
      <circle cx="-84.263310" cy="-39.721500" r="0.0005" />
      <circle cx="-84.263310" cy="-39.722960" r="0.0005" />
      <circle cx="-84.268350" cy="-39.722580" r="0.0005" />
      <circle cx="-84.267740" cy="-39.725590" r="0.0005" />
      <circle cx="-84.265640" cy="-39.725610" r="0.0005" />
      <circle cx="-84.263640" cy="-39.727840" r="0.0005" />
      <circle cx="-84.263590" cy="-39.725690" r="0.0005" />
      <circle cx="-84.259440" cy="-39.726270" r="0.0005" />
      <circle cx="-84.260380" cy="-39.729320" r="0.0005" />
      <circle cx="-84.257120" cy="-39.730320" r="0.0005" />
      <circle cx="-84.258260" cy="-39.732130" r="0.0005" />
      <circle cx="-84.267270" cy="-39.732040" r="0.0005" />
      <circle cx="-84.267050" cy="-39.729050" r="0.0005" />
      <circle cx="-84.269050" cy="-39.729050" r="0.0005" />
      <circle cx="-84.269100" cy="-39.732290" r="0.0005" />
      <circle cx="-84.277380" cy="-39.731940" r="0.0005" />
      <circle cx="-84.279310" cy="-39.732520" r="0.0005" />
      <circle cx="-84.281070" cy="-39.737310" r="0.0005" />
      <circle cx="-84.275770" cy="-39.737310" r="0.0005" />
      <circle cx="-84.275740" cy="-39.739160" r="0.0005" />
      <circle cx="-84.268290" cy="-39.739610" r="0.0005" />
      <circle cx="-84.268380" cy="-39.742850" r="0.0005" />
      <circle cx="-84.271450" cy="-39.742830" r="0.0005" />
      <circle cx="-84.271790" cy="-39.747970" r="0.0005" />
      <circle cx="-84.273860" cy="-39.749120" r="0.0005" />
      <circle cx="-84.268650" cy="-39.749590" r="0.0005" />
      <circle cx="-84.268250" cy="-39.754650" r="0.0005" />
      <circle cx="-84.275850" cy="-39.754540" r="0.0005" />
      <circle cx="-84.277890" cy="-39.750240" r="0.0005" />
      <circle cx="-84.282380" cy="-39.750250" r="0.0005" />
      <circle cx="-84.282170" cy="-39.759160" r="0.0005" />
      <circle cx="-84.277650" cy="-39.758950" r="0.0005" />
      <circle cx="-84.276460" cy="-39.761330" r="0.0005" />
      <circle cx="-84.285840" cy="-39.759690" r="0.0005" />
      <circle cx="-84.285090" cy="-39.762540" r="0.0005" />
      <circle cx="-84.289130" cy="-39.762580" r="0.0005" />
      <circle cx="-84.289210" cy="-39.764300" r="0.0005" />
      <circle cx="-84.291860" cy="-39.764260" r="0.0005" />
      <circle cx="-84.292140" cy="-39.770130" r="0.0005" />
      <circle cx="-84.297660" cy="-39.770070" r="0.0005" />
      <circle cx="-84.297660" cy="-39.764490" r="0.0005" />
      <circle cx="-84.292390" cy="-39.764460" r="0.0005" />
      <circle cx="-84.292420" cy="-39.762790" r="0.0005" />
      <circle cx="-84.296200" cy="-39.761390" r="0.0005" />
      <circle cx="-84.301840" cy="-39.761420" r="0.0005" />
      <circle cx="-84.301770" cy="-39.763090" r="0.0005" />
      <circle cx="-84.310610" cy="-39.763020" r="0.0005" />
      <circle cx="-84.311380" cy="-39.775840" r="0.0005" />
      <circle cx="-84.308910" cy="-39.775850" r="0.0005" />
      <circle cx="-84.308760" cy="-39.772470" r="0.0005" />
      <circle cx="-84.302160" cy="-39.772720" r="0.0005" />
      <circle cx="-84.302210" cy="-39.775870" r="0.0005" />
      <circle cx="-84.292470" cy="-39.775920" r="0.0005" />
      <circle cx="-84.292480" cy="-39.777380" r="0.0005" />
      <circle cx="-84.300320" cy="-39.777120" r="0.0005" />
      <circle cx="-84.304750" cy="-39.779210" r="0.0005" />
      <circle cx="-84.306770" cy="-39.778610" r="0.0005" />
      <circle cx="-84.306800" cy="-39.781540" r="0.0005" />
      <circle cx="-84.301930" cy="-39.781200" r="0.0005" />
      <circle cx="-84.301920" cy="-39.783840" r="0.0005" />
      <circle cx="-84.282980" cy="-39.784160" r="0.0005" />
      <circle cx="-84.282910" cy="-39.785650" r="0.0005" />
      <circle cx="-84.264670" cy="-39.778630" r="0.0005" />
      <circle cx="-84.264590" cy="-39.780060" r="0.0005" />
      <circle cx="-84.270600" cy="-39.787630" r="0.0005" />
      <circle cx="-84.270850" cy="-39.794050" r="0.0005" />
      <circle cx="-84.268380" cy="-39.795290" r="0.0005" />
      <circle cx="-84.268830" cy="-39.798790" r="0.0005" />
      <circle cx="-84.263540" cy="-39.798940" r="0.0005" />
      <circle cx="-84.263690" cy="-39.800080" r="0.0005" />
      <circle cx="-84.253450" cy="-39.800150" r="0.0005" />
      <circle cx="-84.253650" cy="-39.797960" r="0.0005" />
      <circle cx="-84.251360" cy="-39.796650" r="0.0005" />
      <circle cx="-84.252950" cy="-39.794830" r="0.0005" />
      <circle cx="-84.253150" cy="-39.789660" r="0.0005" />
      <circle cx="-84.251600" cy="-39.788280" r="0.0005" />
      <circle cx="-84.244040" cy="-39.788260" r="0.0005" />
      <circle cx="-84.243950" cy="-39.791160" r="0.0005" />
      <circle cx="-84.239550" cy="-39.791250" r="0.0005" />
      <circle cx="-84.238480" cy="-39.793660" r="0.0005" />
      <circle cx="-84.238930" cy="-39.798250" r="0.0005" />
      <circle cx="-84.244790" cy="-39.798440" r="0.0005" />
      <circle cx="-84.244740" cy="-39.802760" r="0.0005" />
      <circle cx="-84.240330" cy="-39.801760" r="0.0005" />
      <circle cx="-84.238890" cy="-39.805270" r="0.0005" />
      <circle cx="-84.235640" cy="-39.804560" r="0.0005" />
      <circle cx="-84.235670" cy="-39.802460" r="0.0005" />
      <circle cx="-84.238860" cy="-39.800980" r="0.0005" />
      <circle cx="-84.235180" cy="-39.800970" r="0.0005" />
      <circle cx="-84.235220" cy="-39.798290" r="0.0005" />
      <circle cx="-84.230300" cy="-39.798350" r="0.0005" />
      <circle cx="-84.229510" cy="-39.794230" r="0.0005" />
      <circle cx="-84.235150" cy="-39.793450" r="0.0005" />
      <circle cx="-84.235120" cy="-39.792150" r="0.0005" />
      <circle cx="-84.230980" cy="-39.791750" r="0.0005" />
      <circle cx="-84.230460" cy="-39.793750" r="0.0005" />
      <circle cx="-84.225840" cy="-39.794280" r="0.0005" />
      <circle cx="-84.222120" cy="-39.793570" r="0.0005" />
      <circle cx="-84.222250" cy="-39.797310" r="0.0005" />
      <circle cx="-84.220220" cy="-39.797360" r="0.0005" />
      <circle cx="-84.219740" cy="-39.800420" r="0.0005" />
      <circle cx="-84.205650" cy="-39.800350" r="0.0005" />
      <circle cx="-84.205450" cy="-39.805950" r="0.0005" />
      <circle cx="-84.206460" cy="-39.808730" r="0.0005" />
      <circle cx="-84.218050" cy="-39.814250" r="0.0005" />
      <circle cx="-84.222250" cy="-39.818350" r="0.0005" />
      <circle cx="-84.221950" cy="-39.820250" r="0.0005" />
      <circle cx="-84.223220" cy="-39.826560" r="0.0005" />
      <circle cx="-84.215050" cy="-39.826940" r="0.0005" />
      <circle cx="-84.215050" cy="-39.828590" r="0.0005" />
      <circle cx="-84.211130" cy="-39.828590" r="0.0005" />
      <circle cx="-84.210930" cy="-39.834210" r="0.0005" />
      <circle cx="-84.207700" cy="-39.834200" r="0.0005" />
      <circle cx="-84.207830" cy="-39.837890" r="0.0005" />
      <circle cx="-84.198680" cy="-39.837920" r="0.0005" />
      <circle cx="-84.201320" cy="-39.835870" r="0.0005" />
      <circle cx="-84.201430" cy="-39.827340" r="0.0005" />
      <circle cx="-84.202840" cy="-39.827320" r="0.0005" />
      <circle cx="-84.202800" cy="-39.822740" r="0.0005" />
      <circle cx="-84.205510" cy="-39.822750" r="0.0005" />
      <circle cx="-84.205440" cy="-39.820870" r="0.0005" />
      <circle cx="-84.201500" cy="-39.820750" r="0.0005" />
      <circle cx="-84.200250" cy="-39.817470" r="0.0005" />
      <circle cx="-84.201450" cy="-39.816350" r="0.0005" />
      <circle cx="-84.198050" cy="-39.812550" r="0.0005" />
      <circle cx="-84.199350" cy="-39.811650" r="0.0005" />
      <circle cx="-84.197150" cy="-39.807650" r="0.0005" />
      <circle cx="-84.193500" cy="-39.797470" r="0.0005" />
      <circle cx="-84.193170" cy="-39.793460" r="0.0005" />
      <circle cx="-84.196680" cy="-39.793440" r="0.0005" />
      <circle cx="-84.195570" cy="-39.788330" r="0.0005" />
      <circle cx="-84.194240" cy="-39.787750" r="0.0005" />
      <circle cx="-84.176740" cy="-39.796960" r="0.0005" />
      <circle cx="-84.176470" cy="-39.800200" r="0.0005" />
      <circle cx="-84.185140" cy="-39.797350" r="0.0005" />
      <circle cx="-84.185140" cy="-39.800090" r="0.0005" />
      <circle cx="-84.181140" cy="-39.801870" r="0.0005" />
      <circle cx="-84.177080" cy="-39.805680" r="0.0005" />
      <circle cx="-84.175560" cy="-39.813150" r="0.0005" />
      <circle cx="-84.179320" cy="-39.813240" r="0.0005" />
      <circle cx="-84.179420" cy="-39.817880" r="0.0005" />
      <circle cx="-84.176050" cy="-39.817860" r="0.0005" />
      <circle cx="-84.176040" cy="-39.820400" r="0.0005" />
      <circle cx="-84.179470" cy="-39.820580" r="0.0005" />
      <circle cx="-84.179540" cy="-39.823530" r="0.0005" />
      <circle cx="-84.177810" cy="-39.823650" r="0.0005" />
      <circle cx="-84.177840" cy="-39.834550" r="0.0005" />
      <circle cx="-84.176040" cy="-39.834550" r="0.0005" />
      <circle cx="-84.175440" cy="-39.836950" r="0.0005" />
      <circle cx="-84.172410" cy="-39.840360" r="0.0005" />
      <circle cx="-84.173540" cy="-39.845150" r="0.0005" />
      <circle cx="-84.167860" cy="-39.844150" r="0.0005" />
      <circle cx="-84.167680" cy="-39.850240" r="0.0005" />
      <circle cx="-84.172390" cy="-39.850690" r="0.0005" />
      <circle cx="-84.170420" cy="-39.857140" r="0.0005" />
      <circle cx="-84.157590" cy="-39.856570" r="0.0005" />
      <circle cx="-84.157670" cy="-39.852920" r="0.0005" />
      <circle cx="-84.158790" cy="-39.852350" r="0.0005" />
      <circle cx="-84.159250" cy="-39.848140" r="0.0005" />
      <circle cx="-84.158660" cy="-39.841730" r="0.0005" />
      <circle cx="-84.162320" cy="-39.841880" r="0.0005" />
      <circle cx="-84.163610" cy="-39.830470" r="0.0005" />
      <circle cx="-84.158540" cy="-39.831050" r="0.0005" />
      <circle cx="-84.168640" cy="-39.826650" r="0.0005" />
      <circle cx="-84.165900" cy="-39.825150" r="0.0005" />
      <circle cx="-84.167550" cy="-39.820080" r="0.0005" />
      <circle cx="-84.164710" cy="-39.820110" r="0.0005" />
      <circle cx="-84.166160" cy="-39.823120" r="0.0005" />
      <circle cx="-84.165060" cy="-39.826110" r="0.0005" />
      <circle cx="-84.161420" cy="-39.825510" r="0.0005" />
      <circle cx="-84.158640" cy="-39.822480" r="0.0005" />
  </g>
</svg>
