<?xml version="1.0" encoding="utf-8" standalone="no"?>
<svg xmlns="http://www.w3.org/2000/svg" version="1.2" viewBox="-84.311190 -39.857120 0.218250 0.154480" viewport-fill="lightblue" style="background-color:lightblue;">
  <g stroke="rgba(0,0,0,0.5)" stroke-width="0.25%" fill="beige">
    <!--
        PointReduction\Algorithms\Lang::apply($givenPoints, 0.001);
        Original 2151 points reduced to 293
    -->
    <path d="M -84.158640 -39.822480 L -84.158790 -39.820130, -84.145360 -39.821520, -84.146270 -39.818460, -84.148680 -39.817290, -84.144660 -39.818910, -84.143390 -39.822530, -84.140260 -39.822710, -84.139690 -39.826310, -84.135840 -39.826120, -84.136920 -39.822810, -84.143150 -39.820350, -84.143000 -39.818740, -84.132740 -39.818750, -84.128020 -39.818460, -84.125590 -39.820700, -84.119170 -39.821440, -84.118120 -39.825260, -84.109510 -39.825570, -84.112860 -39.827170, -84.111640 -39.832190, -84.106840 -39.831860, -84.108840 -39.836700, -84.098020 -39.838650, -84.092940 -39.838340, -84.095430 -39.817980, -84.104430 -39.818180, -84.105140 -39.820460, -84.105870 -39.817310, -84.110170 -39.816330, -84.113790 -39.813840, -84.114550 -39.817040, -84.119270 -39.818190, -84.119570 -39.814400, -84.123130 -39.814490, -84.123460 -39.810800, -84.118880 -39.810550, -84.118690 -39.808590, -84.130290 -39.811210, -84.142530 -39.813460, -84.147070 -39.814970, -84.150140 -39.813410, -84.149700 -39.811920, -84.152730 -39.811800, -84.150440 -39.809650, -84.158240 -39.800050, -84.164640 -39.798050, -84.160920 -39.797480, -84.162330 -39.796320, -84.155060 -39.799850, -84.154190 -39.794660, -84.155660 -39.792560, -84.147760 -39.792480, -84.147290 -39.790340, -84.141320 -39.787650, -84.115190 -39.797480, -84.117210 -39.801160, -84.114040 -39.802960, -84.110440 -39.802650, -84.112800 -39.807770, -84.109290 -39.809760, -84.097680 -39.809190, -84.095750 -39.809170, -84.097680 -39.793460, -84.138190 -39.778080, -84.131710 -39.773520, -84.127700 -39.772680, -84.127880 -39.769540, -84.134480 -39.772140, -84.136960 -39.765330, -84.137190 -39.763150, -84.127190 -39.762670, -84.126190 -39.759900, -84.122040 -39.759380, -84.123320 -39.757350, -84.120250 -39.756250, -84.120640 -39.746530, -84.127950 -39.747790, -84.123500 -39.745940, -84.129370 -39.742050, -84.129910 -39.737570, -84.108720 -39.736800, -84.109850 -39.729060, -84.119380 -39.729910, -84.119740 -39.727760, -84.130040 -39.727150, -84.130540 -39.722660, -84.136140 -39.721420, -84.136430 -39.722750, -84.141290 -39.722500, -84.142070 -39.720960, -84.152730 -39.720970, -84.153790 -39.716940, -84.160920 -39.718210, -84.164540 -39.731050, -84.174000 -39.734320, -84.188590 -39.732030, -84.196560 -39.727560, -84.204050 -39.728670, -84.204490 -39.726340, -84.206920 -39.726860, -84.205900 -39.728860, -84.210440 -39.729450, -84.215470 -39.732470, -84.223340 -39.728150, -84.227350 -39.723520, -84.228140 -39.714750, -84.236440 -39.703150, -84.252230 -39.702990, -84.253350 -39.720550, -84.263590 -39.719320, -84.263510 -39.715270, -84.261480 -39.715190, -84.261610 -39.712700, -84.258300 -39.712350, -84.259640 -39.707260, -84.264340 -39.705830, -84.263270 -39.702890, -84.280870 -39.702640, -84.279070 -39.706260, -84.279610 -39.709900, -84.276700 -39.710810, -84.277250 -39.712510, -84.275550 -39.714490, -84.280510 -39.717650, -84.279300 -39.719200, -84.284020 -39.716890, -84.281060 -39.716530, -84.281000 -39.713240, -84.290830 -39.714740, -84.290240 -39.716840, -84.287270 -39.716890, -84.286360 -39.721880, -84.280770 -39.720110, -84.277350 -39.720170, -84.275210 -39.719010, -84.276530 -39.715260, -84.271340 -39.716940, -84.273420 -39.720800, -84.263310 -39.721500, -84.263310 -39.722960, -84.268350 -39.722580, -84.267730 -39.725570, -84.263640 -39.727840, -84.263590 -39.725690, -84.259440 -39.726270, -84.260380 -39.729320, -84.257350 -39.731280, -84.267270 -39.732040, -84.267990 -39.729040, -84.269050 -39.730250, -84.268160 -39.733050, -84.279750 -39.732600, -84.279770 -39.735900, -84.281070 -39.737310, -84.268290 -39.739610, -84.268620 -39.742850, -84.271450 -39.742830, -84.271790 -39.747970, -84.273860 -39.749120, -84.268630 -39.750380, -84.267490 -39.754240, -84.267040 -39.754450, -84.275850 -39.754540, -84.278980 -39.750270, -84.282410 -39.750670, -84.282170 -39.759160, -84.276390 -39.760150, -84.278090 -39.761320, -84.285800 -39.760230, -84.285090 -39.762540, -84.291860 -39.764260, -84.292400 -39.770140, -84.297660 -39.770070, -84.297660 -39.764490, -84.292390 -39.764460, -84.292420 -39.762790, -84.301840 -39.761420, -84.301770 -39.763090, -84.310610 -39.763020, -84.311190 -39.775830, -84.308910 -39.775850, -84.308760 -39.772470, -84.302160 -39.772720, -84.301270 -39.775870, -84.292470 -39.776040, -84.292480 -39.777380, -84.306770 -39.778610, -84.307700 -39.780120, -84.306380 -39.780620, -84.306800 -39.781540, -84.301930 -39.781200, -84.301920 -39.783840, -84.282980 -39.784160, -84.282910 -39.785650, -84.264610 -39.779550, -84.270600 -39.787630, -84.271780 -39.794680, -84.268380 -39.795290, -84.268500 -39.797110, -84.270660 -39.797780, -84.261570 -39.799990, -84.253450 -39.799840, -84.252150 -39.796150, -84.252610 -39.789080, -84.244040 -39.788260, -84.243840 -39.792220, -84.242210 -39.791150, -84.239550 -39.791250, -84.238930 -39.798250, -84.244790 -39.799170, -84.243800 -39.802460, -84.240090 -39.802430, -84.238890 -39.805270, -84.235020 -39.805090, -84.235740 -39.801960, -84.238930 -39.801400, -84.235180 -39.800970, -84.234180 -39.798290, -84.230300 -39.798350, -84.229510 -39.794230, -84.235150 -39.793450, -84.233860 -39.792160, -84.229940 -39.791050, -84.229840 -39.794070, -84.220060 -39.794290, -84.222220 -39.795160, -84.219740 -39.800420, -84.205650 -39.800350, -84.206460 -39.808730, -84.220160 -39.816120, -84.222250 -39.818350, -84.222920 -39.826560, -84.211130 -39.828590, -84.210270 -39.834170, -84.207700 -39.834200, -84.207830 -39.837890, -84.198960 -39.837120, -84.201290 -39.834650, -84.202800 -39.822740, -84.205510 -39.821770, -84.200950 -39.819610, -84.200620 -39.817280, -84.201450 -39.816350, -84.198650 -39.812220, -84.198390 -39.807640, -84.197150 -39.805990, -84.197900 -39.804740, -84.196030 -39.803580, -84.193170 -39.793460, -84.196630 -39.792440, -84.194240 -39.787750, -84.176520 -39.798110, -84.177220 -39.799770, -84.185140 -39.797350, -84.183940 -39.800700, -84.181140 -39.801870, -84.179350 -39.801960, -84.179940 -39.803720, -84.175680 -39.806480, -84.177080 -39.805680, -84.176440 -39.813250, -84.179330 -39.814000, -84.179420 -39.817880, -84.176050 -39.817860, -84.176040 -39.820400, -84.178410 -39.820630, -84.179520 -39.822730, -84.176750 -39.823650, -84.179610 -39.826940, -84.177540 -39.827160, -84.177840 -39.834550, -84.176040 -39.834550, -84.172240 -39.842150, -84.172940 -39.845350, -84.167820 -39.845120, -84.167680 -39.850240, -84.172390 -39.850690, -84.173710 -39.848550, -84.170310 -39.857120, -84.157590 -39.856570, -84.159490 -39.841730, -84.162320 -39.841880, -84.163610 -39.830470, -84.158540 -39.830550, -84.168440 -39.826050, -84.166070 -39.824680, -84.167200 -39.820090, -84.164700 -39.821210, -84.165460 -39.822080, -84.165060 -39.826110, -84.159560 -39.823750, -84.158640 -39.822480 Z"/>
  </g>
  <g fill="red">
      <circle cx="-84.158640" cy="-39.822480" r="0.0005" />
      <circle cx="-84.158790" cy="-39.820130" r="0.0005" />
      <circle cx="-84.145360" cy="-39.821520" r="0.0005" />
      <circle cx="-84.146270" cy="-39.818460" r="0.0005" />
      <circle cx="-84.148680" cy="-39.817290" r="0.0005" />
      <circle cx="-84.144660" cy="-39.818910" r="0.0005" />
      <circle cx="-84.143390" cy="-39.822530" r="0.0005" />
      <circle cx="-84.140260" cy="-39.822710" r="0.0005" />
      <circle cx="-84.139690" cy="-39.826310" r="0.0005" />
      <circle cx="-84.135840" cy="-39.826120" r="0.0005" />
      <circle cx="-84.136920" cy="-39.822810" r="0.0005" />
      <circle cx="-84.143150" cy="-39.820350" r="0.0005" />
      <circle cx="-84.143000" cy="-39.818740" r="0.0005" />
      <circle cx="-84.132740" cy="-39.818750" r="0.0005" />
      <circle cx="-84.128020" cy="-39.818460" r="0.0005" />
      <circle cx="-84.125590" cy="-39.820700" r="0.0005" />
      <circle cx="-84.119170" cy="-39.821440" r="0.0005" />
      <circle cx="-84.118120" cy="-39.825260" r="0.0005" />
      <circle cx="-84.109510" cy="-39.825570" r="0.0005" />
      <circle cx="-84.112860" cy="-39.827170" r="0.0005" />
      <circle cx="-84.111640" cy="-39.832190" r="0.0005" />
      <circle cx="-84.106840" cy="-39.831860" r="0.0005" />
      <circle cx="-84.108840" cy="-39.836700" r="0.0005" />
      <circle cx="-84.098020" cy="-39.838650" r="0.0005" />
      <circle cx="-84.092940" cy="-39.838340" r="0.0005" />
      <circle cx="-84.095430" cy="-39.817980" r="0.0005" />
      <circle cx="-84.104430" cy="-39.818180" r="0.0005" />
      <circle cx="-84.105140" cy="-39.820460" r="0.0005" />
      <circle cx="-84.105870" cy="-39.817310" r="0.0005" />
      <circle cx="-84.110170" cy="-39.816330" r="0.0005" />
      <circle cx="-84.113790" cy="-39.813840" r="0.0005" />
      <circle cx="-84.114550" cy="-39.817040" r="0.0005" />
      <circle cx="-84.119270" cy="-39.818190" r="0.0005" />
      <circle cx="-84.119570" cy="-39.814400" r="0.0005" />
      <circle cx="-84.123130" cy="-39.814490" r="0.0005" />
      <circle cx="-84.123460" cy="-39.810800" r="0.0005" />
      <circle cx="-84.118880" cy="-39.810550" r="0.0005" />
      <circle cx="-84.118690" cy="-39.808590" r="0.0005" />
      <circle cx="-84.130290" cy="-39.811210" r="0.0005" />
      <circle cx="-84.142530" cy="-39.813460" r="0.0005" />
      <circle cx="-84.147070" cy="-39.814970" r="0.0005" />
      <circle cx="-84.150140" cy="-39.813410" r="0.0005" />
      <circle cx="-84.149700" cy="-39.811920" r="0.0005" />
      <circle cx="-84.152730" cy="-39.811800" r="0.0005" />
      <circle cx="-84.150440" cy="-39.809650" r="0.0005" />
      <circle cx="-84.158240" cy="-39.800050" r="0.0005" />
      <circle cx="-84.164640" cy="-39.798050" r="0.0005" />
      <circle cx="-84.160920" cy="-39.797480" r="0.0005" />
      <circle cx="-84.162330" cy="-39.796320" r="0.0005" />
      <circle cx="-84.155060" cy="-39.799850" r="0.0005" />
      <circle cx="-84.154190" cy="-39.794660" r="0.0005" />
      <circle cx="-84.155660" cy="-39.792560" r="0.0005" />
      <circle cx="-84.147760" cy="-39.792480" r="0.0005" />
      <circle cx="-84.147290" cy="-39.790340" r="0.0005" />
      <circle cx="-84.141320" cy="-39.787650" r="0.0005" />
      <circle cx="-84.115190" cy="-39.797480" r="0.0005" />
      <circle cx="-84.117210" cy="-39.801160" r="0.0005" />
      <circle cx="-84.114040" cy="-39.802960" r="0.0005" />
      <circle cx="-84.110440" cy="-39.802650" r="0.0005" />
      <circle cx="-84.112800" cy="-39.807770" r="0.0005" />
      <circle cx="-84.109290" cy="-39.809760" r="0.0005" />
      <circle cx="-84.097680" cy="-39.809190" r="0.0005" />
      <circle cx="-84.095750" cy="-39.809170" r="0.0005" />
      <circle cx="-84.097680" cy="-39.793460" r="0.0005" />
      <circle cx="-84.138190" cy="-39.778080" r="0.0005" />
      <circle cx="-84.131710" cy="-39.773520" r="0.0005" />
      <circle cx="-84.127700" cy="-39.772680" r="0.0005" />
      <circle cx="-84.127880" cy="-39.769540" r="0.0005" />
      <circle cx="-84.134480" cy="-39.772140" r="0.0005" />
      <circle cx="-84.136960" cy="-39.765330" r="0.0005" />
      <circle cx="-84.137190" cy="-39.763150" r="0.0005" />
      <circle cx="-84.127190" cy="-39.762670" r="0.0005" />
      <circle cx="-84.126190" cy="-39.759900" r="0.0005" />
      <circle cx="-84.122040" cy="-39.759380" r="0.0005" />
      <circle cx="-84.123320" cy="-39.757350" r="0.0005" />
      <circle cx="-84.120250" cy="-39.756250" r="0.0005" />
      <circle cx="-84.120640" cy="-39.746530" r="0.0005" />
      <circle cx="-84.127950" cy="-39.747790" r="0.0005" />
      <circle cx="-84.123500" cy="-39.745940" r="0.0005" />
      <circle cx="-84.129370" cy="-39.742050" r="0.0005" />
      <circle cx="-84.129910" cy="-39.737570" r="0.0005" />
      <circle cx="-84.108720" cy="-39.736800" r="0.0005" />
      <circle cx="-84.109850" cy="-39.729060" r="0.0005" />
      <circle cx="-84.119380" cy="-39.729910" r="0.0005" />
      <circle cx="-84.119740" cy="-39.727760" r="0.0005" />
      <circle cx="-84.130040" cy="-39.727150" r="0.0005" />
      <circle cx="-84.130540" cy="-39.722660" r="0.0005" />
      <circle cx="-84.136140" cy="-39.721420" r="0.0005" />
      <circle cx="-84.136430" cy="-39.722750" r="0.0005" />
      <circle cx="-84.141290" cy="-39.722500" r="0.0005" />
      <circle cx="-84.142070" cy="-39.720960" r="0.0005" />
      <circle cx="-84.152730" cy="-39.720970" r="0.0005" />
      <circle cx="-84.153790" cy="-39.716940" r="0.0005" />
      <circle cx="-84.160920" cy="-39.718210" r="0.0005" />
      <circle cx="-84.164540" cy="-39.731050" r="0.0005" />
      <circle cx="-84.174000" cy="-39.734320" r="0.0005" />
      <circle cx="-84.188590" cy="-39.732030" r="0.0005" />
      <circle cx="-84.196560" cy="-39.727560" r="0.0005" />
      <circle cx="-84.204050" cy="-39.728670" r="0.0005" />
      <circle cx="-84.204490" cy="-39.726340" r="0.0005" />
      <circle cx="-84.206920" cy="-39.726860" r="0.0005" />
      <circle cx="-84.205900" cy="-39.728860" r="0.0005" />
      <circle cx="-84.210440" cy="-39.729450" r="0.0005" />
      <circle cx="-84.215470" cy="-39.732470" r="0.0005" />
      <circle cx="-84.223340" cy="-39.728150" r="0.0005" />
      <circle cx="-84.227350" cy="-39.723520" r="0.0005" />
      <circle cx="-84.228140" cy="-39.714750" r="0.0005" />
      <circle cx="-84.236440" cy="-39.703150" r="0.0005" />
      <circle cx="-84.252230" cy="-39.702990" r="0.0005" />
      <circle cx="-84.253350" cy="-39.720550" r="0.0005" />
      <circle cx="-84.263590" cy="-39.719320" r="0.0005" />
      <circle cx="-84.263510" cy="-39.715270" r="0.0005" />
      <circle cx="-84.261480" cy="-39.715190" r="0.0005" />
      <circle cx="-84.261610" cy="-39.712700" r="0.0005" />
      <circle cx="-84.258300" cy="-39.712350" r="0.0005" />
      <circle cx="-84.259640" cy="-39.707260" r="0.0005" />
      <circle cx="-84.264340" cy="-39.705830" r="0.0005" />
      <circle cx="-84.263270" cy="-39.702890" r="0.0005" />
      <circle cx="-84.280870" cy="-39.702640" r="0.0005" />
      <circle cx="-84.279070" cy="-39.706260" r="0.0005" />
      <circle cx="-84.279610" cy="-39.709900" r="0.0005" />
      <circle cx="-84.276700" cy="-39.710810" r="0.0005" />
      <circle cx="-84.277250" cy="-39.712510" r="0.0005" />
      <circle cx="-84.275550" cy="-39.714490" r="0.0005" />
      <circle cx="-84.280510" cy="-39.717650" r="0.0005" />
      <circle cx="-84.279300" cy="-39.719200" r="0.0005" />
      <circle cx="-84.284020" cy="-39.716890" r="0.0005" />
      <circle cx="-84.281060" cy="-39.716530" r="0.0005" />
      <circle cx="-84.281000" cy="-39.713240" r="0.0005" />
      <circle cx="-84.290830" cy="-39.714740" r="0.0005" />
      <circle cx="-84.290240" cy="-39.716840" r="0.0005" />
      <circle cx="-84.287270" cy="-39.716890" r="0.0005" />
      <circle cx="-84.286360" cy="-39.721880" r="0.0005" />
      <circle cx="-84.280770" cy="-39.720110" r="0.0005" />
      <circle cx="-84.277350" cy="-39.720170" r="0.0005" />
      <circle cx="-84.275210" cy="-39.719010" r="0.0005" />
      <circle cx="-84.276530" cy="-39.715260" r="0.0005" />
      <circle cx="-84.271340" cy="-39.716940" r="0.0005" />
      <circle cx="-84.273420" cy="-39.720800" r="0.0005" />
      <circle cx="-84.263310" cy="-39.721500" r="0.0005" />
      <circle cx="-84.263310" cy="-39.722960" r="0.0005" />
      <circle cx="-84.268350" cy="-39.722580" r="0.0005" />
      <circle cx="-84.267730" cy="-39.725570" r="0.0005" />
      <circle cx="-84.263640" cy="-39.727840" r="0.0005" />
      <circle cx="-84.263590" cy="-39.725690" r="0.0005" />
      <circle cx="-84.259440" cy="-39.726270" r="0.0005" />
      <circle cx="-84.260380" cy="-39.729320" r="0.0005" />
      <circle cx="-84.257350" cy="-39.731280" r="0.0005" />
      <circle cx="-84.267270" cy="-39.732040" r="0.0005" />
      <circle cx="-84.267990" cy="-39.729040" r="0.0005" />
      <circle cx="-84.269050" cy="-39.730250" r="0.0005" />
      <circle cx="-84.268160" cy="-39.733050" r="0.0005" />
      <circle cx="-84.279750" cy="-39.732600" r="0.0005" />
      <circle cx="-84.279770" cy="-39.735900" r="0.0005" />
      <circle cx="-84.281070" cy="-39.737310" r="0.0005" />
      <circle cx="-84.268290" cy="-39.739610" r="0.0005" />
      <circle cx="-84.268620" cy="-39.742850" r="0.0005" />
      <circle cx="-84.271450" cy="-39.742830" r="0.0005" />
      <circle cx="-84.271790" cy="-39.747970" r="0.0005" />
      <circle cx="-84.273860" cy="-39.749120" r="0.0005" />
      <circle cx="-84.268630" cy="-39.750380" r="0.0005" />
      <circle cx="-84.267490" cy="-39.754240" r="0.0005" />
      <circle cx="-84.267040" cy="-39.754450" r="0.0005" />
      <circle cx="-84.275850" cy="-39.754540" r="0.0005" />
      <circle cx="-84.278980" cy="-39.750270" r="0.0005" />
      <circle cx="-84.282410" cy="-39.750670" r="0.0005" />
      <circle cx="-84.282170" cy="-39.759160" r="0.0005" />
      <circle cx="-84.276390" cy="-39.760150" r="0.0005" />
      <circle cx="-84.278090" cy="-39.761320" r="0.0005" />
      <circle cx="-84.285800" cy="-39.760230" r="0.0005" />
      <circle cx="-84.285090" cy="-39.762540" r="0.0005" />
      <circle cx="-84.291860" cy="-39.764260" r="0.0005" />
      <circle cx="-84.292400" cy="-39.770140" r="0.0005" />
      <circle cx="-84.297660" cy="-39.770070" r="0.0005" />
      <circle cx="-84.297660" cy="-39.764490" r="0.0005" />
      <circle cx="-84.292390" cy="-39.764460" r="0.0005" />
      <circle cx="-84.292420" cy="-39.762790" r="0.0005" />
      <circle cx="-84.301840" cy="-39.761420" r="0.0005" />
      <circle cx="-84.301770" cy="-39.763090" r="0.0005" />
      <circle cx="-84.310610" cy="-39.763020" r="0.0005" />
      <circle cx="-84.311190" cy="-39.775830" r="0.0005" />
      <circle cx="-84.308910" cy="-39.775850" r="0.0005" />
      <circle cx="-84.308760" cy="-39.772470" r="0.0005" />
      <circle cx="-84.302160" cy="-39.772720" r="0.0005" />
      <circle cx="-84.301270" cy="-39.775870" r="0.0005" />
      <circle cx="-84.292470" cy="-39.776040" r="0.0005" />
      <circle cx="-84.292480" cy="-39.777380" r="0.0005" />
      <circle cx="-84.306770" cy="-39.778610" r="0.0005" />
      <circle cx="-84.307700" cy="-39.780120" r="0.0005" />
      <circle cx="-84.306380" cy="-39.780620" r="0.0005" />
      <circle cx="-84.306800" cy="-39.781540" r="0.0005" />
      <circle cx="-84.301930" cy="-39.781200" r="0.0005" />
      <circle cx="-84.301920" cy="-39.783840" r="0.0005" />
      <circle cx="-84.282980" cy="-39.784160" r="0.0005" />
      <circle cx="-84.282910" cy="-39.785650" r="0.0005" />
      <circle cx="-84.264610" cy="-39.779550" r="0.0005" />
      <circle cx="-84.270600" cy="-39.787630" r="0.0005" />
      <circle cx="-84.271780" cy="-39.794680" r="0.0005" />
      <circle cx="-84.268380" cy="-39.795290" r="0.0005" />
      <circle cx="-84.268500" cy="-39.797110" r="0.0005" />
      <circle cx="-84.270660" cy="-39.797780" r="0.0005" />
      <circle cx="-84.261570" cy="-39.799990" r="0.0005" />
      <circle cx="-84.253450" cy="-39.799840" r="0.0005" />
      <circle cx="-84.252150" cy="-39.796150" r="0.0005" />
      <circle cx="-84.252610" cy="-39.789080" r="0.0005" />
      <circle cx="-84.244040" cy="-39.788260" r="0.0005" />
      <circle cx="-84.243840" cy="-39.792220" r="0.0005" />
      <circle cx="-84.242210" cy="-39.791150" r="0.0005" />
      <circle cx="-84.239550" cy="-39.791250" r="0.0005" />
      <circle cx="-84.238930" cy="-39.798250" r="0.0005" />
      <circle cx="-84.244790" cy="-39.799170" r="0.0005" />
      <circle cx="-84.243800" cy="-39.802460" r="0.0005" />
      <circle cx="-84.240090" cy="-39.802430" r="0.0005" />
      <circle cx="-84.238890" cy="-39.805270" r="0.0005" />
      <circle cx="-84.235020" cy="-39.805090" r="0.0005" />
      <circle cx="-84.235740" cy="-39.801960" r="0.0005" />
      <circle cx="-84.238930" cy="-39.801400" r="0.0005" />
      <circle cx="-84.235180" cy="-39.800970" r="0.0005" />
      <circle cx="-84.234180" cy="-39.798290" r="0.0005" />
      <circle cx="-84.230300" cy="-39.798350" r="0.0005" />
      <circle cx="-84.229510" cy="-39.794230" r="0.0005" />
      <circle cx="-84.235150" cy="-39.793450" r="0.0005" />
      <circle cx="-84.233860" cy="-39.792160" r="0.0005" />
      <circle cx="-84.229940" cy="-39.791050" r="0.0005" />
      <circle cx="-84.229840" cy="-39.794070" r="0.0005" />
      <circle cx="-84.220060" cy="-39.794290" r="0.0005" />
      <circle cx="-84.222220" cy="-39.795160" r="0.0005" />
      <circle cx="-84.219740" cy="-39.800420" r="0.0005" />
      <circle cx="-84.205650" cy="-39.800350" r="0.0005" />
      <circle cx="-84.206460" cy="-39.808730" r="0.0005" />
      <circle cx="-84.220160" cy="-39.816120" r="0.0005" />
      <circle cx="-84.222250" cy="-39.818350" r="0.0005" />
      <circle cx="-84.222920" cy="-39.826560" r="0.0005" />
      <circle cx="-84.211130" cy="-39.828590" r="0.0005" />
      <circle cx="-84.210270" cy="-39.834170" r="0.0005" />
      <circle cx="-84.207700" cy="-39.834200" r="0.0005" />
      <circle cx="-84.207830" cy="-39.837890" r="0.0005" />
      <circle cx="-84.198960" cy="-39.837120" r="0.0005" />
      <circle cx="-84.201290" cy="-39.834650" r="0.0005" />
      <circle cx="-84.202800" cy="-39.822740" r="0.0005" />
      <circle cx="-84.205510" cy="-39.821770" r="0.0005" />
      <circle cx="-84.200950" cy="-39.819610" r="0.0005" />
      <circle cx="-84.200620" cy="-39.817280" r="0.0005" />
      <circle cx="-84.201450" cy="-39.816350" r="0.0005" />
      <circle cx="-84.198650" cy="-39.812220" r="0.0005" />
      <circle cx="-84.198390" cy="-39.807640" r="0.0005" />
      <circle cx="-84.197150" cy="-39.805990" r="0.0005" />
      <circle cx="-84.197900" cy="-39.804740" r="0.0005" />
      <circle cx="-84.196030" cy="-39.803580" r="0.0005" />
      <circle cx="-84.193170" cy="-39.793460" r="0.0005" />
      <circle cx="-84.196630" cy="-39.792440" r="0.0005" />
      <circle cx="-84.194240" cy="-39.787750" r="0.0005" />
      <circle cx="-84.176520" cy="-39.798110" r="0.0005" />
      <circle cx="-84.177220" cy="-39.799770" r="0.0005" />
      <circle cx="-84.185140" cy="-39.797350" r="0.0005" />
      <circle cx="-84.183940" cy="-39.800700" r="0.0005" />
      <circle cx="-84.181140" cy="-39.801870" r="0.0005" />
      <circle cx="-84.179350" cy="-39.801960" r="0.0005" />
      <circle cx="-84.179940" cy="-39.803720" r="0.0005" />
      <circle cx="-84.175680" cy="-39.806480" r="0.0005" />
      <circle cx="-84.177080" cy="-39.805680" r="0.0005" />
      <circle cx="-84.176440" cy="-39.813250" r="0.0005" />
      <circle cx="-84.179330" cy="-39.814000" r="0.0005" />
      <circle cx="-84.179420" cy="-39.817880" r="0.0005" />
      <circle cx="-84.176050" cy="-39.817860" r="0.0005" />
      <circle cx="-84.176040" cy="-39.820400" r="0.0005" />
      <circle cx="-84.178410" cy="-39.820630" r="0.0005" />
      <circle cx="-84.179520" cy="-39.822730" r="0.0005" />
      <circle cx="-84.176750" cy="-39.823650" r="0.0005" />
      <circle cx="-84.179610" cy="-39.826940" r="0.0005" />
      <circle cx="-84.177540" cy="-39.827160" r="0.0005" />
      <circle cx="-84.177840" cy="-39.834550" r="0.0005" />
      <circle cx="-84.176040" cy="-39.834550" r="0.0005" />
      <circle cx="-84.172240" cy="-39.842150" r="0.0005" />
      <circle cx="-84.172940" cy="-39.845350" r="0.0005" />
      <circle cx="-84.167820" cy="-39.845120" r="0.0005" />
      <circle cx="-84.167680" cy="-39.850240" r="0.0005" />
      <circle cx="-84.172390" cy="-39.850690" r="0.0005" />
      <circle cx="-84.173710" cy="-39.848550" r="0.0005" />
      <circle cx="-84.170310" cy="-39.857120" r="0.0005" />
      <circle cx="-84.157590" cy="-39.856570" r="0.0005" />
      <circle cx="-84.159490" cy="-39.841730" r="0.0005" />
      <circle cx="-84.162320" cy="-39.841880" r="0.0005" />
      <circle cx="-84.163610" cy="-39.830470" r="0.0005" />
      <circle cx="-84.158540" cy="-39.830550" r="0.0005" />
      <circle cx="-84.168440" cy="-39.826050" r="0.0005" />
      <circle cx="-84.166070" cy="-39.824680" r="0.0005" />
      <circle cx="-84.167200" cy="-39.820090" r="0.0005" />
      <circle cx="-84.164700" cy="-39.821210" r="0.0005" />
      <circle cx="-84.165460" cy="-39.822080" r="0.0005" />
      <circle cx="-84.165060" cy="-39.826110" r="0.0005" />
      <circle cx="-84.159560" cy="-39.823750" r="0.0005" />
      <circle cx="-84.158640" cy="-39.822480" r="0.0005" />
  </g>
</svg>
