<?xml version="1.0" encoding="utf-8"?>
<svg xmlns="http://www.w3.org/2000/svg" version="1.2" viewBox="-84.311380 -39.857140 0.218440 0.154500" viewport-fill="lightblue" style="background-color:lightblue;">
  <g stroke="rgba(0,0,0,0.5)" stroke-width="0.25%" fill="beige">
    <!--
        PointReduction\Algorithms\RamerDouglasPeucker::apply($givenPoints, 0.001);
        Original 2151 points reduced to 343
    -->
    <path d="M -84.158640 -39.822480 L -84.159250 -39.820120, -84.145310 -39.821800, -84.146270 -39.818460, -84.148680 -39.817290, -84.146460 -39.817270, -84.144660 -39.818910, -84.144440 -39.822150, -84.140260 -39.822710, -84.140040 -39.826340, -84.135840 -39.826120, -84.135800 -39.823720, -84.138330 -39.822840, -84.138550 -39.821260, -84.142960 -39.821390, -84.143000 -39.818740, -84.135190 -39.819710, -84.128140 -39.818350, -84.125590 -39.820700, -84.119320 -39.820470, -84.118890 -39.825310, -84.109650 -39.824760, -84.112780 -39.828640, -84.111640 -39.832190, -84.106840 -39.831860, -84.106820 -39.833830, -84.109350 -39.835420, -84.107910 -39.837620, -84.092940 -39.838340, -84.094940 -39.817940, -84.104430 -39.818180, -84.104160 -39.820460, -84.105780 -39.820460, -84.105870 -39.817310, -84.109940 -39.817350, -84.113550 -39.813520, -84.113700 -39.816900, -84.119270 -39.818190, -84.119570 -39.814400, -84.123130 -39.814490, -84.123460 -39.810800, -84.118880 -39.810550, -84.118690 -39.808590, -84.122870 -39.808740, -84.124970 -39.811000, -84.136850 -39.811470, -84.136870 -39.812740, -84.142650 -39.812920, -84.142620 -39.814130, -84.146910 -39.815550, -84.147250 -39.814320, -84.149960 -39.814370, -84.149700 -39.811920, -84.152730 -39.811800, -84.150440 -39.809650, -84.156640 -39.801150, -84.164640 -39.798050, -84.160280 -39.797990, -84.162330 -39.796320, -84.161080 -39.795850, -84.155060 -39.799850, -84.153660 -39.795100, -84.155660 -39.792560, -84.147760 -39.792560, -84.147900 -39.790400, -84.144980 -39.790140, -84.142110 -39.787260, -84.115190 -39.797480, -84.117560 -39.801160, -84.116270 -39.800880, -84.115190 -39.803220, -84.110270 -39.802140, -84.113100 -39.807610, -84.111580 -39.809070, -84.095750 -39.809170, -84.096940 -39.793710, -84.131550 -39.781630, -84.130100 -39.780140, -84.138410 -39.778360, -84.133100 -39.773530, -84.127700 -39.772680, -84.127880 -39.769540, -84.132610 -39.771120, -84.132650 -39.772470, -84.135430 -39.771730, -84.137190 -39.763150, -84.127190 -39.762670, -84.126340 -39.759930, -84.121940 -39.759500, -84.123320 -39.757350, -84.120210 -39.757130, -84.120640 -39.746530, -84.128750 -39.748080, -84.123500 -39.745940, -84.125520 -39.743510, -84.128410 -39.743620, -84.130590 -39.737600, -84.108720 -39.736800, -84.109850 -39.729060, -84.119310 -39.730500, -84.119740 -39.727760, -84.129740 -39.728150, -84.130540 -39.722660, -84.134940 -39.721350, -84.136030 -39.722760, -84.141260 -39.723120, -84.141450 -39.720960, -84.152730 -39.720970, -84.153790 -39.716940, -84.160920 -39.717360, -84.164540 -39.731050, -84.172600 -39.734520, -84.185540 -39.733200, -84.194190 -39.727820, -84.204050 -39.728670, -84.204490 -39.726340, -84.207730 -39.726360, -84.205900 -39.728860, -84.210710 -39.729090, -84.210040 -39.729990, -84.212160 -39.731610, -84.216100 -39.732390, -84.223340 -39.728150, -84.227350 -39.723520, -84.228140 -39.714750, -84.235340 -39.703150, -84.252230 -39.702990, -84.253350 -39.720550, -84.263590 -39.719320, -84.263510 -39.715270, -84.261480 -39.715190, -84.261610 -39.712700, -84.258390 -39.712740, -84.257890 -39.711300, -84.259640 -39.707260, -84.264340 -39.705830, -84.263100 -39.702940, -84.280870 -39.702640, -84.280840 -39.704370, -84.278930 -39.704370, -84.280140 -39.709310, -84.277030 -39.709730, -84.277340 -39.712410, -84.275550 -39.714490, -84.278060 -39.715540, -84.277500 -39.716900, -84.280850 -39.716860, -84.279300 -39.719200, -84.280850 -39.719170, -84.280940 -39.717310, -84.284020 -39.717330, -84.281020 -39.716830, -84.281000 -39.713240, -84.290830 -39.714490, -84.290750 -39.716820, -84.287270 -39.716890, -84.287300 -39.721870, -84.284060 -39.721910, -84.284050 -39.720150, -84.280770 -39.719830, -84.277100 -39.720940, -84.275210 -39.719010, -84.276530 -39.715260, -84.273420 -39.715350, -84.271310 -39.717600, -84.273420 -39.720800, -84.263310 -39.721500, -84.263310 -39.722960, -84.268350 -39.722580, -84.267030 -39.724030, -84.267740 -39.725590, -84.263640 -39.727840, -84.263590 -39.725690, -84.259440 -39.726270, -84.260890 -39.730090, -84.259500 -39.728930, -84.257410 -39.731490, -84.267270 -39.732040, -84.267990 -39.728720, -84.269570 -39.730000, -84.268160 -39.733050, -84.279900 -39.731910, -84.278850 -39.734990, -84.281070 -39.737310, -84.268290 -39.739610, -84.268380 -39.742850, -84.271450 -39.742830, -84.271790 -39.747970, -84.273860 -39.749120, -84.268650 -39.749590, -84.268890 -39.751620, -84.267550 -39.751650, -84.268510 -39.754240, -84.266250 -39.754460, -84.275850 -39.754540, -84.277890 -39.750240, -84.282380 -39.750250, -84.282170 -39.759160, -84.277650 -39.758950, -84.276460 -39.761330, -84.285840 -39.759690, -84.285090 -39.762540, -84.291860 -39.764260, -84.292140 -39.770130, -84.297660 -39.770070, -84.297660 -39.764490, -84.292390 -39.764460, -84.292420 -39.762790, -84.301840 -39.761420, -84.301770 -39.763090, -84.310610 -39.763020, -84.311380 -39.775840, -84.308910 -39.775850, -84.308760 -39.772470, -84.302160 -39.772720, -84.302210 -39.775870, -84.292470 -39.775920, -84.292480 -39.777380, -84.306770 -39.778610, -84.307700 -39.780120, -84.305770 -39.780090, -84.307280 -39.781340, -84.301930 -39.781200, -84.301920 -39.783840, -84.282980 -39.784160, -84.282910 -39.785650, -84.264670 -39.778630, -84.271320 -39.787430, -84.271780 -39.794680, -84.268380 -39.795290, -84.268500 -39.797110, -84.271150 -39.797780, -84.263540 -39.798940, -84.263690 -39.800080, -84.253450 -39.800150, -84.253650 -39.797960, -84.251360 -39.796650, -84.252950 -39.794830, -84.253150 -39.789660, -84.251600 -39.788280, -84.244040 -39.788260, -84.244530 -39.792680, -84.243950 -39.791160, -84.239550 -39.791250, -84.239760 -39.793740, -84.238480 -39.793660, -84.238930 -39.798250, -84.244790 -39.798440, -84.244740 -39.802760, -84.240330 -39.801760, -84.238890 -39.805270, -84.235640 -39.804560, -84.235660 -39.805940, -84.235170 -39.801480, -84.238260 -39.802370, -84.238860 -39.800980, -84.235180 -39.800970, -84.235220 -39.798290, -84.230300 -39.798350, -84.229510 -39.794230, -84.235150 -39.793450, -84.235120 -39.792150, -84.232800 -39.792840, -84.231940 -39.791000, -84.229940 -39.791050, -84.229840 -39.794070, -84.220050 -39.793950, -84.222140 -39.794280, -84.222250 -39.797310, -84.220220 -39.797360, -84.219050 -39.800790, -84.205650 -39.800350, -84.206060 -39.808180, -84.221550 -39.817350, -84.223220 -39.826560, -84.211130 -39.828590, -84.210930 -39.834210, -84.207700 -39.834200, -84.207830 -39.837890, -84.198680 -39.837920, -84.201320 -39.835870, -84.202800 -39.822740, -84.205510 -39.821770, -84.201500 -39.820750, -84.200250 -39.817470, -84.201450 -39.816350, -84.198050 -39.812550, -84.199340 -39.808450, -84.197150 -39.807650, -84.197900 -39.804740, -84.196400 -39.804750, -84.194280 -39.800920, -84.193170 -39.793460, -84.196680 -39.793440, -84.195570 -39.788330, -84.190270 -39.789460, -84.177390 -39.796590, -84.176470 -39.800200, -84.185140 -39.797350, -84.185140 -39.800090, -84.182170 -39.802250, -84.182940 -39.800740, -84.179350 -39.801960, -84.180420 -39.803440, -84.175680 -39.806250, -84.177080 -39.805680, -84.175560 -39.813150, -84.179320 -39.813240, -84.179420 -39.817880, -84.176050 -39.817860, -84.176040 -39.820400, -84.177610 -39.821490, -84.179470 -39.820580, -84.179540 -39.823530, -84.176740 -39.823530, -84.179610 -39.826940, -84.177540 -39.827160, -84.177840 -39.834550, -84.176040 -39.834550, -84.172410 -39.840360, -84.173640 -39.845450, -84.167860 -39.844150, -84.167680 -39.850240, -84.172390 -39.850690, -84.173650 -39.848060, -84.170420 -39.857140, -84.157590 -39.856570, -84.159640 -39.848100, -84.158660 -39.841730, -84.162320 -39.841880, -84.163610 -39.830470, -84.158540 -39.830550, -84.168640 -39.826650, -84.168260 -39.825050, -84.165900 -39.825150, -84.167550 -39.820080, -84.164710 -39.820110, -84.165890 -39.821200, -84.164910 -39.823150, -84.166160 -39.823120, -84.165060 -39.826110, -84.161420 -39.825510, -84.158640 -39.822480 Z"/>
  </g>
</svg>
