<?xml version="1.0" encoding="utf-8"?>
<svg xmlns="http://www.w3.org/2000/svg" version="1.2" viewBox="-84.311380 -39.857140 0.218440 0.155310" viewport-fill="lightblue" style="background-color:lightblue;">
  <g stroke="rgba(0,0,0,0.5)" stroke-width="0.25%" fill="beige">
    <path d="M -84.158640 -39.822480 L -84.158980 -39.822470, -84.159320 -39.822460, -84.159300 -39.821950, -84.159270 -39.820890, -84.159280 -39.820690, -84.159280 -39.820650, -84.159250 -39.820120, -84.159130 -39.820120, -84.159060 -39.820120, -84.158790 -39.820130, -84.157130 -39.820120, -84.156150 -39.820110, -84.155820 -39.820110, -84.154620 -39.820100, -84.154600 -39.820250, -84.154610 -39.820560, -84.154590 -39.820620, -84.154570 -39.820670, -84.154530 -39.820720, -84.154450 -39.820780, -84.154260 -39.820930, -84.153870 -39.821220, -84.153780 -39.821270, -84.153640 -39.821320, -84.153510 -39.821360, -84.153390 -39.821370, -84.153280 -39.821370, -84.153180 -39.821360, -84.152810 -39.821260, -84.152460 -39.821160, -84.152010 -39.821030, -84.151600 -39.820930, -84.151330 -39.820870, -84.151340 -39.820100, -84.151010 -39.820130, -84.150710 -39.820180, -84.150420 -39.820240, -84.150180 -39.820300, -84.149910 -39.820390, -84.149760 -39.820440, -84.149490 -39.820560, -84.149220 -39.820690, -84.148900 -39.820870, -84.148470 -39.821150, -84.148250 -39.821270, -84.148010 -39.821400, -84.147710 -39.821520, -84.147480 -39.821600, -84.147230 -39.821670, -84.146900 -39.821750, -84.146670 -39.821790, -84.146430 -39.821820, -84.146100 -39.821840, -84.145830 -39.821840, -84.145630 -39.821830, -84.145440 -39.821820, -84.145310 -39.821800, -84.145360 -39.821520, -84.145580 -39.820700, -84.145830 -39.819710, -84.146470 -39.819710, -84.146720 -39.818930, -84.146140 -39.818920, -84.146270 -39.818460, -84.148380 -39.818470, -84.148680 -39.817290, -84.146460 -39.817270, -84.146450 -39.817290, -84.146330 -39.817780, -84.145520 -39.817800, -84.145390 -39.818280, -84.145930 -39.818280, -84.145780 -39.818920, -84.144660 -39.818910, -84.144210 -39.820540, -84.144630 -39.820610, -84.144530 -39.820840, -84.144200 -39.821610, -84.144480 -39.821660, -84.144440 -39.822150, -84.143550 -39.822080, -84.143390 -39.822530, -84.141600 -39.822380, -84.141580 -39.822770, -84.140260 -39.822710, -84.140040 -39.826340, -84.139690 -39.826310, -84.135840 -39.826120, -84.135800 -39.823720, -84.136200 -39.823750, -84.136260 -39.822780, -84.136920 -39.822810, -84.138160 -39.822890, -84.138220 -39.822880, -84.138280 -39.822870, -84.138330 -39.822840, -84.138370 -39.822790, -84.138400 -39.822750, -84.138420 -39.822580, -84.138480 -39.821950, -84.138550 -39.821260, -84.142460 -39.821300, -84.142940 -39.821390, -84.142960 -39.821390, -84.143150 -39.820350, -84.142560 -39.820290, -84.143000 -39.818740, -84.137610 -39.818800, -84.136000 -39.818810, -84.135190 -39.819710, -84.135000 -39.819640, -84.134640 -39.819490, -84.134410 -39.819400, -84.134020 -39.819240, -84.133540 -39.819050, -84.132740 -39.818750, -84.132570 -39.818670, -84.131650 -39.818550, -84.130970 -39.818500, -84.129320 -39.818390, -84.128140 -39.818350, -84.128020 -39.818460, -84.126860 -39.819530, -84.125590 -39.820700, -84.119320 -39.820470, -84.119170 -39.821440, -84.118890 -39.825310, -84.118120 -39.825260, -84.116030 -39.825140, -84.113550 -39.825000, -84.113460 -39.825000, -84.113330 -39.824990, -84.111470 -39.824870, -84.110450 -39.824810, -84.109910 -39.824760, -84.109650 -39.824760, -84.109510 -39.825570, -84.110680 -39.826920, -84.112860 -39.827170, -84.112780 -39.828640, -84.111950 -39.829280, -84.111900 -39.829920, -84.111640 -39.832190, -84.109270 -39.832020, -84.109280 -39.831580, -84.107780 -39.831560, -84.107780 -39.831930, -84.106840 -39.831860, -84.106840 -39.832890, -84.106820 -39.833830, -84.107300 -39.834110, -84.108140 -39.834580, -84.108140 -39.835250, -84.108280 -39.835250, -84.108790 -39.835250, -84.108790 -39.835430, -84.109350 -39.835420, -84.109370 -39.836180, -84.108840 -39.836700, -84.108390 -39.837120, -84.107910 -39.837620, -84.102140 -39.837370, -84.102110 -39.837840, -84.102050 -39.838270, -84.101990 -39.838880, -84.100580 -39.838790, -84.099840 -39.838750, -84.099410 -39.838720, -84.098650 -39.838680, -84.098020 -39.838650, -84.096540 -39.838560, -84.095830 -39.838510, -84.094390 -39.838430, -84.092940 -39.838340, -84.094340 -39.823770, -84.094340 -39.823760, -84.094890 -39.818810, -84.094940 -39.817940, -84.095430 -39.817980, -84.099840 -39.818070, -84.104430 -39.818180, -84.104310 -39.819380, -84.104160 -39.820460, -84.105140 -39.820460, -84.105780 -39.820460, -84.105840 -39.819990, -84.105840 -39.819160, -84.105840 -39.817470, -84.105870 -39.817310, -84.107780 -39.817330, -84.109940 -39.817350, -84.109950 -39.817230, -84.110000 -39.816960, -84.109920 -39.816950, -84.110030 -39.816610, -84.110170 -39.816330, -84.110420 -39.816090, -84.111130 -39.815270, -84.112940 -39.813640, -84.113040 -39.813740, -84.113550 -39.813520, -84.113790 -39.813840, -84.114200 -39.814300, -84.114500 -39.814580, -84.114410 -39.814860, -84.114370 -39.814940, -84.114450 -39.814980, -84.114360 -39.815150, -84.114300 -39.815120, -84.114150 -39.815420, -84.113890 -39.816330, -84.113710 -39.816800, -84.113700 -39.816900, -84.113920 -39.816910, -84.114020 -39.816790, -84.114450 -39.816840, -84.114610 -39.816860, -84.114550 -39.817040, -84.115450 -39.817140, -84.115260 -39.817900, -84.118130 -39.818050, -84.118100 -39.818100, -84.118700 -39.818110, -84.118690 -39.818190, -84.119270 -39.818190, -84.119530 -39.814750, -84.119570 -39.814400, -84.122910 -39.814480, -84.123130 -39.814490, -84.123340 -39.812810, -84.123460 -39.810800, -84.120530 -39.810640, -84.118880 -39.810550, -84.118690 -39.808590, -84.121420 -39.808650, -84.122870 -39.808740, -84.122880 -39.808750, -84.123400 -39.809810, -84.124200 -39.810840, -84.124970 -39.811000, -84.126570 -39.811030, -84.126590 -39.810690, -84.130330 -39.810710, -84.130290 -39.811210, -84.133280 -39.811280, -84.133470 -39.811290, -84.133860 -39.811310, -84.133950 -39.811330, -84.134920 -39.811390, -84.135020 -39.811400, -84.135050 -39.811420, -84.135100 -39.811370, -84.135270 -39.811380, -84.136850 -39.811470, -84.136870 -39.812740, -84.142650 -39.812920, -84.142600 -39.813110, -84.142530 -39.813460, -84.142550 -39.813830, -84.142620 -39.814130, -84.145460 -39.814390, -84.145300 -39.815380, -84.146910 -39.815550, -84.147070 -39.814970, -84.147230 -39.814370, -84.147250 -39.814320, -84.149960 -39.814370, -84.150140 -39.813410, -84.150170 -39.812970, -84.150090 -39.812530, -84.149900 -39.812160, -84.149700 -39.811920, -84.152300 -39.811850, -84.152470 -39.811800, -84.152730 -39.811800, -84.150440 -39.809650, -84.153040 -39.804950, -84.156640 -39.801150, -84.158150 -39.800110, -84.158240 -39.800050, -84.164640 -39.798050, -84.163540 -39.798050, -84.160280 -39.797990, -84.160310 -39.797980, -84.160430 -39.797880, -84.160640 -39.797720, -84.160920 -39.797480, -84.161230 -39.797210, -84.161660 -39.796870, -84.162260 -39.796380, -84.162330 -39.796320, -84.161080 -39.795850, -84.161000 -39.795930, -84.160790 -39.796100, -84.160710 -39.796180, -84.160490 -39.796390, -84.160210 -39.796640, -84.159910 -39.796920, -84.159570 -39.797240, -84.159350 -39.797450, -84.158960 -39.797820, -84.158590 -39.798160, -84.158560 -39.798190, -84.157930 -39.798790, -84.157280 -39.799390, -84.156680 -39.799960, -84.156540 -39.799940, -84.155110 -39.799860, -84.155060 -39.799850, -84.155530 -39.797960, -84.153710 -39.797820, -84.153660 -39.795100, -84.153810 -39.794990, -84.153980 -39.794850, -84.154190 -39.794660, -84.154300 -39.794540, -84.154330 -39.794490, -84.155330 -39.793040, -84.155600 -39.792650, -84.155660 -39.792560, -84.153930 -39.792580, -84.153930 -39.792780, -84.152680 -39.792730, -84.147760 -39.792560, -84.147760 -39.792480, -84.147900 -39.790400, -84.147380 -39.790390, -84.147340 -39.790360, -84.147290 -39.790340, -84.146230 -39.790260, -84.145750 -39.790230, -84.145040 -39.790150, -84.144980 -39.790140, -84.144940 -39.790110, -84.144900 -39.790070, -84.144890 -39.790050, -84.144880 -39.790000, -84.144880 -39.789940, -84.144890 -39.789890, -84.144940 -39.789660, -84.144970 -39.789470, -84.144990 -39.789280, -84.144990 -39.789250, -84.144340 -39.789350, -84.144260 -39.789150, -84.144150 -39.788860, -84.144040 -39.788660, -84.143700 -39.788390, -84.143510 -39.788330, -84.143160 -39.788330, -84.143070 -39.788230, -84.142780 -39.787940, -84.142630 -39.787790, -84.142520 -39.787710, -84.142500 -39.787690, -84.142360 -39.787570, -84.142330 -39.787560, -84.142110 -39.787260, -84.141640 -39.787500, -84.141320 -39.787650, -84.140480 -39.788070, -84.140150 -39.788230, -84.139660 -39.788480, -84.138500 -39.789050, -84.138070 -39.789240, -84.137880 -39.789330, -84.137780 -39.789370, -84.137080 -39.789650, -84.136480 -39.789880, -84.136170 -39.789990, -84.135870 -39.790100, -84.135260 -39.790320, -84.135090 -39.790380, -84.134770 -39.790510, -84.134340 -39.790660, -84.133310 -39.791030, -84.132560 -39.791300, -84.131580 -39.791650, -84.131200 -39.791790, -84.130960 -39.791880, -84.130570 -39.792020, -84.130230 -39.792140, -84.129160 -39.792520, -84.127240 -39.792730, -84.126160 -39.793610, -84.125950 -39.793690, -84.125320 -39.793920, -84.125020 -39.794020, -84.124780 -39.794110, -84.124380 -39.794250, -84.124160 -39.794330, -84.123230 -39.794670, -84.122030 -39.795090, -84.121950 -39.795120, -84.121650 -39.795230, -84.121320 -39.795350, -84.121000 -39.795470, -84.120700 -39.795570, -84.120600 -39.795610, -84.119150 -39.796130, -84.118820 -39.796250, -84.118580 -39.796340, -84.118170 -39.796490, -84.117710 -39.796660, -84.116770 -39.796990, -84.116300 -39.797150, -84.116200 -39.797180, -84.115980 -39.797260, -84.115630 -39.797360, -84.115480 -39.797410, -84.115350 -39.797440, -84.115300 -39.797450, -84.115240 -39.797470, -84.115190 -39.797480, -84.117310 -39.800240, -84.117290 -39.800340, -84.117300 -39.800620, -84.117330 -39.800780, -84.117560 -39.801160, -84.117210 -39.801160, -84.116270 -39.800880, -84.116120 -39.801440, -84.115900 -39.802350, -84.115450 -39.802290, -84.115190 -39.803220, -84.115020 -39.803180, -84.114040 -39.802960, -84.111850 -39.802490, -84.111330 -39.802370, -84.110350 -39.802160, -84.110270 -39.802140, -84.110440 -39.802650, -84.112120 -39.805390, -84.113100 -39.807610, -84.112800 -39.807770, -84.112110 -39.808180, -84.112020 -39.808220, -84.111960 -39.808240, -84.111860 -39.808290, -84.111510 -39.808480, -84.111880 -39.808870, -84.111580 -39.809070, -84.111210 -39.808630, -84.111010 -39.808750, -84.110810 -39.808870, -84.110600 -39.809010, -84.110250 -39.809230, -84.109810 -39.809490, -84.109670 -39.809530, -84.109440 -39.809670, -84.109290 -39.809760, -84.104530 -39.809530, -84.103540 -39.809150, -84.102440 -39.808440, -84.100060 -39.808360, -84.101120 -39.809370, -84.097680 -39.809190, -84.095750 -39.809170, -84.096040 -39.804750, -84.096060 -39.804590, -84.096090 -39.804240, -84.096140 -39.803790, -84.096140 -39.803780, -84.096640 -39.798760, -84.096730 -39.797850, -84.096750 -39.797630, -84.096760 -39.797620, -84.096760 -39.797590, -84.096880 -39.796390, -84.096940 -39.795790, -84.096940 -39.795760, -84.096940 -39.794250, -84.096940 -39.793720, -84.096940 -39.793710, -84.097680 -39.793460, -84.100670 -39.792400, -84.108120 -39.789860, -84.115050 -39.787400, -84.120010 -39.785620, -84.120410 -39.785470, -84.127200 -39.783110, -84.131550 -39.781630, -84.131510 -39.781520, -84.131160 -39.780580, -84.130010 -39.780550, -84.130100 -39.780140, -84.131140 -39.779930, -84.132240 -39.779640, -84.133350 -39.779330, -84.134490 -39.779020, -84.135330 -39.778850, -84.135490 -39.779130, -84.135900 -39.779020, -84.136460 -39.778880, -84.138230 -39.778420, -84.138410 -39.778360, -84.138350 -39.778280, -84.138190 -39.778080, -84.138110 -39.778000, -84.138020 -39.777940, -84.137280 -39.777520, -84.137220 -39.777470, -84.137190 -39.777430, -84.136840 -39.777350, -84.136410 -39.776970, -84.134790 -39.775910, -84.134810 -39.775810, -84.134810 -39.775250, -84.134800 -39.774980, -84.134470 -39.774690, -84.133100 -39.773530, -84.132830 -39.773530, -84.131850 -39.773540, -84.131930 -39.773640, -84.131840 -39.773630, -84.131710 -39.773520, -84.130020 -39.773510, -84.129230 -39.773170, -84.128730 -39.772950, -84.128250 -39.772790, -84.127880 -39.772740, -84.127700 -39.772680, -84.127880 -39.769540, -84.129380 -39.770940, -84.132610 -39.771120, -84.132650 -39.772470, -84.134020 -39.772480, -84.134470 -39.772490, -84.134480 -39.772140, -84.134550 -39.771710, -84.135430 -39.771730, -84.135440 -39.770230, -84.135810 -39.768430, -84.136690 -39.768460, -84.136750 -39.768130, -84.136960 -39.765330, -84.137140 -39.763650, -84.137190 -39.763150, -84.135440 -39.763150, -84.132800 -39.763120, -84.132410 -39.763120, -84.131550 -39.763090, -84.130660 -39.762890, -84.129610 -39.762810, -84.128640 -39.762760, -84.127190 -39.762670, -84.126940 -39.760860, -84.126540 -39.760850, -84.126310 -39.760850, -84.126340 -39.759930, -84.126290 -39.759920, -84.126190 -39.759900, -84.124980 -39.760590, -84.124590 -39.760570, -84.124300 -39.760540, -84.124070 -39.760530, -84.124090 -39.760130, -84.123830 -39.760140, -84.123830 -39.759870, -84.124050 -39.759880, -84.124060 -39.759670, -84.123580 -39.759630, -84.122720 -39.759580, -84.122500 -39.759550, -84.122350 -39.759540, -84.121940 -39.759500, -84.122040 -39.759380, -84.123040 -39.757650, -84.123320 -39.757350, -84.120210 -39.757130, -84.120230 -39.756740, -84.120250 -39.756250, -84.120310 -39.755790, -84.120340 -39.755420, -84.120350 -39.755030, -84.120330 -39.754810, -84.120330 -39.754750, -84.120290 -39.754480, -84.120200 -39.753940, -84.119940 -39.752400, -84.119900 -39.752110, -84.119890 -39.751940, -84.119880 -39.751880, -84.119860 -39.751600, -84.119860 -39.751390, -84.119880 -39.751180, -84.119910 -39.750960, -84.119980 -39.750620, -84.120040 -39.750340, -84.120060 -39.750230, -84.120110 -39.750070, -84.120150 -39.749940, -84.120170 -39.749880, -84.120300 -39.749380, -84.120310 -39.749300, -84.120410 -39.748850, -84.120430 -39.748760, -84.120470 -39.748450, -84.120510 -39.747980, -84.120560 -39.747500, -84.120630 -39.746600, -84.120640 -39.746530, -84.124770 -39.747370, -84.128080 -39.748310, -84.128040 -39.748050, -84.127990 -39.747890, -84.128750 -39.748080, -84.128870 -39.747960, -84.128750 -39.747940, -84.128540 -39.747910, -84.128470 -39.747890, -84.127950 -39.747790, -84.127850 -39.747340, -84.127160 -39.747130, -84.126600 -39.746950, -84.125930 -39.746730, -84.125540 -39.746610, -84.124360 -39.746220, -84.123900 -39.746080, -84.123500 -39.745940, -84.125520 -39.743510, -84.127630 -39.743590, -84.128410 -39.743620, -84.128700 -39.743040, -84.128860 -39.742710, -84.128940 -39.742550, -84.129150 -39.742050, -84.129370 -39.742050, -84.129910 -39.740180, -84.130230 -39.740200, -84.130330 -39.739670, -84.130210 -39.739670, -84.130070 -39.739670, -84.130030 -39.739560, -84.130040 -39.739470, -84.130060 -39.738660, -84.130190 -39.738670, -84.130610 -39.738680, -84.130570 -39.738150, -84.130590 -39.737600, -84.129910 -39.737570, -84.129650 -39.737570, -84.129530 -39.737570, -84.128750 -39.737550, -84.124820 -39.737300, -84.121550 -39.737200, -84.120610 -39.737150, -84.119470 -39.737080, -84.119240 -39.737060, -84.118790 -39.737040, -84.117920 -39.737000, -84.117730 -39.736980, -84.114920 -39.736740, -84.113210 -39.736750, -84.111620 -39.736610, -84.110730 -39.736680, -84.110200 -39.736670, -84.108720 -39.736800, -84.108900 -39.735590, -84.108910 -39.735500, -84.109060 -39.734750, -84.109520 -39.734750, -84.109520 -39.733580, -84.109550 -39.731420, -84.109610 -39.730750, -84.109650 -39.729820, -84.109770 -39.729290, -84.109850 -39.729060, -84.114130 -39.729340, -84.114820 -39.729400, -84.115660 -39.729540, -84.116480 -39.729710, -84.118000 -39.730130, -84.119310 -39.730500, -84.119380 -39.729910, -84.119740 -39.727760, -84.122300 -39.727750, -84.122540 -39.727770, -84.122620 -39.727780, -84.124240 -39.727850, -84.124500 -39.727870, -84.125540 -39.727950, -84.125680 -39.727940, -84.126640 -39.727850, -84.126830 -39.727870, -84.127960 -39.727960, -84.129040 -39.728060, -84.129270 -39.728090, -84.129740 -39.728150, -84.130010 -39.727260, -84.130040 -39.727150, -84.130130 -39.725580, -84.130140 -39.725460, -84.130420 -39.722990, -84.130440 -39.722860, -84.130540 -39.722660, -84.133010 -39.722650, -84.133540 -39.722750, -84.133540 -39.722160, -84.134140 -39.722150, -84.134840 -39.722250, -84.134940 -39.721350, -84.135200 -39.721370, -84.136140 -39.721420, -84.136030 -39.722760, -84.136430 -39.722750, -84.137510 -39.722750, -84.138590 -39.722850, -84.139680 -39.722960, -84.140760 -39.723050, -84.141260 -39.723120, -84.141260 -39.722770, -84.141290 -39.722500, -84.141450 -39.720960, -84.142070 -39.720960, -84.149100 -39.721280, -84.149260 -39.720180, -84.149350 -39.720310, -84.149750 -39.720800, -84.149830 -39.720910, -84.152730 -39.720970, -84.152990 -39.719650, -84.153190 -39.716930, -84.153790 -39.716940, -84.155260 -39.717020, -84.157450 -39.717210, -84.159280 -39.717380, -84.160200 -39.717360, -84.160920 -39.717360, -84.160940 -39.718160, -84.160920 -39.718210, -84.160650 -39.718850, -84.161240 -39.719350, -84.163540 -39.724750, -84.163550 -39.724840, -84.163720 -39.727740, -84.163990 -39.727750, -84.164080 -39.728820, -84.164250 -39.729720, -84.164340 -39.730150, -84.164540 -39.731050, -84.166950 -39.732810, -84.168690 -39.732880, -84.168830 -39.732900, -84.168940 -39.732920, -84.168990 -39.732930, -84.169390 -39.733100, -84.169660 -39.733230, -84.169740 -39.733260, -84.170750 -39.733710, -84.171120 -39.733880, -84.171580 -39.734080, -84.172410 -39.734450, -84.172600 -39.734520, -84.172670 -39.734520, -84.172770 -39.734520, -84.173390 -39.734420, -84.174000 -39.734320, -84.175500 -39.734090, -84.176840 -39.733880, -84.177470 -39.733780, -84.178130 -39.733680, -84.178580 -39.733610, -84.178960 -39.733550, -84.179280 -39.733500, -84.179670 -39.733440, -84.179910 -39.733400, -84.180360 -39.733330, -84.180710 -39.733280, -84.180950 -39.733260, -84.181320 -39.733260, -84.181820 -39.733280, -84.181950 -39.733280, -84.182060 -39.733260, -84.182250 -39.733220, -84.182370 -39.733190, -84.182500 -39.733140, -84.183360 -39.732800, -84.183620 -39.732700, -84.184080 -39.733480, -84.185120 -39.733150, -84.185370 -39.733170, -84.185360 -39.733100, -84.185470 -39.733060, -84.185540 -39.733200, -84.185840 -39.733080, -84.185830 -39.732970, -84.186040 -39.732790, -84.186200 -39.732680, -84.186370 -39.732590, -84.186550 -39.732510, -84.186720 -39.732480, -84.187080 -39.732440, -84.187460 -39.732410, -84.187610 -39.732390, -84.187730 -39.732370, -84.188590 -39.732030, -84.188380 -39.731650, -84.188460 -39.731600, -84.188860 -39.731350, -84.188970 -39.731300, -84.189220 -39.731200, -84.189330 -39.731150, -84.189610 -39.731030, -84.189700 -39.730980, -84.189900 -39.730870, -84.190050 -39.730810, -84.190230 -39.730700, -84.190410 -39.730570, -84.190820 -39.730220, -84.191170 -39.729940, -84.191970 -39.729320, -84.193270 -39.728370, -84.193420 -39.728260, -84.193800 -39.728000, -84.194080 -39.727850, -84.194190 -39.727820, -84.194920 -39.727690, -84.195160 -39.727660, -84.195650 -39.727590, -84.195910 -39.727570, -84.196150 -39.727560, -84.196560 -39.727560, -84.196670 -39.727570, -84.196760 -39.727570, -84.196830 -39.727580, -84.196810 -39.727670, -84.197220 -39.727720, -84.197540 -39.727750, -84.197610 -39.727760, -84.199330 -39.727990, -84.204050 -39.728670, -84.204490 -39.726340, -84.206970 -39.726540, -84.207020 -39.726360, -84.207730 -39.726360, -84.206920 -39.726860, -84.206730 -39.727000, -84.206590 -39.727150, -84.206510 -39.727260, -84.206500 -39.727370, -84.206530 -39.727630, -84.206520 -39.727840, -84.206490 -39.728010, -84.206420 -39.728180, -84.206320 -39.728350, -84.206110 -39.728590, -84.205900 -39.728860, -84.207130 -39.728990, -84.207370 -39.728980, -84.207750 -39.728980, -84.208050 -39.728990, -84.210470 -39.729100, -84.210650 -39.729100, -84.210710 -39.729090, -84.210580 -39.729270, -84.210440 -39.729450, -84.210040 -39.729990, -84.211910 -39.730450, -84.212000 -39.731150, -84.212070 -39.731520, -84.212160 -39.731610, -84.213380 -39.732120, -84.214950 -39.732430, -84.215470 -39.732470, -84.215640 -39.732450, -84.216100 -39.732390, -84.216730 -39.732270, -84.217020 -39.732070, -84.217540 -39.731750, -84.223340 -39.728150, -84.227350 -39.723520, -84.228140 -39.714750, -84.230140 -39.711250, -84.235340 -39.703150, -84.235640 -39.703150, -84.236150 -39.703150, -84.236440 -39.703150, -84.238120 -39.703180, -84.242630 -39.703120, -84.247510 -39.703090, -84.248170 -39.703110, -84.251350 -39.702860, -84.252230 -39.702990, -84.252240 -39.705300, -84.252240 -39.706430, -84.252250 -39.706840, -84.252250 -39.707520, -84.252250 -39.707740, -84.252250 -39.708340, -84.252260 -39.708590, -84.252260 -39.709420, -84.252260 -39.709680, -84.252260 -39.709920, -84.252260 -39.710110, -84.252260 -39.710420, -84.252270 -39.710770, -84.252270 -39.711100, -84.252280 -39.712090, -84.252280 -39.712470, -84.252290 -39.714060, -84.253120 -39.714070, -84.253160 -39.715110, -84.253220 -39.716600, -84.253240 -39.717050, -84.253340 -39.719250, -84.253350 -39.720550, -84.258870 -39.720080, -84.258720 -39.719360, -84.263590 -39.719320, -84.263570 -39.716980, -84.263510 -39.715270, -84.261480 -39.715190, -84.261610 -39.712700, -84.258390 -39.712740, -84.258360 -39.712600, -84.258300 -39.712350, -84.257940 -39.711420, -84.257890 -39.711300, -84.257980 -39.711220, -84.258300 -39.710860, -84.258030 -39.710410, -84.258110 -39.710210, -84.258140 -39.710120, -84.258270 -39.709790, -84.258390 -39.709480, -84.258590 -39.708970, -84.258660 -39.708810, -84.258730 -39.708640, -84.258760 -39.708580, -84.258910 -39.708240, -84.258980 -39.708110, -84.259070 -39.707950, -84.259230 -39.707750, -84.259320 -39.707640, -84.259640 -39.707260, -84.261940 -39.707240, -84.262000 -39.706010, -84.264340 -39.705830, -84.264310 -39.704530, -84.263990 -39.704470, -84.263830 -39.704560, -84.263110 -39.704610, -84.263640 -39.703530, -84.262540 -39.703580, -84.262790 -39.703240, -84.262950 -39.703060, -84.263030 -39.702990, -84.263100 -39.702940, -84.263150 -39.702920, -84.263180 -39.702910, -84.263270 -39.702890, -84.263400 -39.702870, -84.264360 -39.702860, -84.266130 -39.702830, -84.266870 -39.702830, -84.266980 -39.702820, -84.267050 -39.702810, -84.267090 -39.702790, -84.267150 -39.702750, -84.267180 -39.702720, -84.267200 -39.702670, -84.267200 -39.702550, -84.267170 -39.701890, -84.267920 -39.701870, -84.269520 -39.701850, -84.270150 -39.701840, -84.270680 -39.701840, -84.271520 -39.701830, -84.271620 -39.701850, -84.271670 -39.701870, -84.271710 -39.701890, -84.271760 -39.701960, -84.271800 -39.702040, -84.271910 -39.702500, -84.271950 -39.702590, -84.271990 -39.702640, -84.272030 -39.702680, -84.272080 -39.702700, -84.272170 -39.702730, -84.272260 -39.702740, -84.272530 -39.702740, -84.274460 -39.702710, -84.274530 -39.702710, -84.275320 -39.702700, -84.275340 -39.703320, -84.275900 -39.703320, -84.275900 -39.702700, -84.275940 -39.702700, -84.276060 -39.702700, -84.277640 -39.702680, -84.278820 -39.702650, -84.279160 -39.702630, -84.279360 -39.702630, -84.280870 -39.702640, -84.280840 -39.704370, -84.278930 -39.704370, -84.278930 -39.704440, -84.279000 -39.705230, -84.279070 -39.706260, -84.279080 -39.706440, -84.279190 -39.707700, -84.279190 -39.707940, -84.279200 -39.708000, -84.279240 -39.708080, -84.279290 -39.708160, -84.280050 -39.709200, -84.280110 -39.709280, -84.280140 -39.709310, -84.279670 -39.709830, -84.279610 -39.709900, -84.277450 -39.709750, -84.277030 -39.709730, -84.276720 -39.710090, -84.276800 -39.710170, -84.277030 -39.710360, -84.276700 -39.710810, -84.276430 -39.711060, -84.276520 -39.711510, -84.276550 -39.711840, -84.276980 -39.712190, -84.277340 -39.712410, -84.277250 -39.712510, -84.275600 -39.714440, -84.275550 -39.714490, -84.278060 -39.715540, -84.277500 -39.716900, -84.278060 -39.716910, -84.280850 -39.716860, -84.280510 -39.717650, -84.280510 -39.717940, -84.279730 -39.717940, -84.279700 -39.718470, -84.279360 -39.718470, -84.279300 -39.719200, -84.280770 -39.719170, -84.280850 -39.719170, -84.280810 -39.717680, -84.280940 -39.717310, -84.282310 -39.717320, -84.284020 -39.717330, -84.284020 -39.716890, -84.282040 -39.716870, -84.281020 -39.716830, -84.281040 -39.716700, -84.281060 -39.716530, -84.281060 -39.715740, -84.281050 -39.715260, -84.281020 -39.714230, -84.281000 -39.713240, -84.285300 -39.713270, -84.285330 -39.714510, -84.290830 -39.714490, -84.290830 -39.714740, -84.290840 -39.715600, -84.290830 -39.715730, -84.290840 -39.716700, -84.290830 -39.716740, -84.290790 -39.716790, -84.290750 -39.716820, -84.290700 -39.716840, -84.290530 -39.716850, -84.290300 -39.716840, -84.290240 -39.716840, -84.287270 -39.716890, -84.287310 -39.721360, -84.287300 -39.721870, -84.286360 -39.721880, -84.284060 -39.721910, -84.284050 -39.720150, -84.280770 -39.719830, -84.280770 -39.720110, -84.280770 -39.720250, -84.279640 -39.720690, -84.279570 -39.720180, -84.278340 -39.720320, -84.278440 -39.720800, -84.277100 -39.720940, -84.277350 -39.720170, -84.275210 -39.719010, -84.275320 -39.716920, -84.276440 -39.716910, -84.276450 -39.716750, -84.276530 -39.715260, -84.274890 -39.715270, -84.274470 -39.715740, -84.273420 -39.715350, -84.272370 -39.716460, -84.272080 -39.716200, -84.272130 -39.716930, -84.271340 -39.716940, -84.271310 -39.717600, -84.272220 -39.718300, -84.273320 -39.719120, -84.273550 -39.719290, -84.273420 -39.720800, -84.269950 -39.720790, -84.269360 -39.721450, -84.263310 -39.721500, -84.263310 -39.722960, -84.265040 -39.722890, -84.265040 -39.722600, -84.265040 -39.722360, -84.265240 -39.722350, -84.265270 -39.722820, -84.265740 -39.722800, -84.266350 -39.722830, -84.266980 -39.722800, -84.266960 -39.722420, -84.267500 -39.722420, -84.267500 -39.722610, -84.268350 -39.722580, -84.267030 -39.724030, -84.267780 -39.724040, -84.267780 -39.724610, -84.267100 -39.725040, -84.267320 -39.725170, -84.267410 -39.725230, -84.267510 -39.725310, -84.267580 -39.725380, -84.267640 -39.725450, -84.267730 -39.725570, -84.267740 -39.725590, -84.265900 -39.725600, -84.265640 -39.725610, -84.265570 -39.725690, -84.265160 -39.726140, -84.265090 -39.726220, -84.264920 -39.726430, -84.264680 -39.726690, -84.264430 -39.726970, -84.264220 -39.727200, -84.263640 -39.727840, -84.263590 -39.725690, -84.260850 -39.725720, -84.261090 -39.726310, -84.259440 -39.726270, -84.260190 -39.728580, -84.260560 -39.728490, -84.260580 -39.728830, -84.260890 -39.730090, -84.260720 -39.730220, -84.260650 -39.730270, -84.260620 -39.730250, -84.260600 -39.730220, -84.260580 -39.730190, -84.260430 -39.729420, -84.260420 -39.729380, -84.260400 -39.729350, -84.260380 -39.729320, -84.260350 -39.729300, -84.260320 -39.729270, -84.260230 -39.729230, -84.260020 -39.729160, -84.259950 -39.729120, -84.259900 -39.729070, -84.259620 -39.728970, -84.259500 -39.728930, -84.259470 -39.729460, -84.259430 -39.729480, -84.257120 -39.730320, -84.257240 -39.730540, -84.257320 -39.730690, -84.257340 -39.730940, -84.257340 -39.731110, -84.257350 -39.731280, -84.257380 -39.731400, -84.257410 -39.731490, -84.257440 -39.731530, -84.257550 -39.731610, -84.258020 -39.731950, -84.258260 -39.732130, -84.258360 -39.732060, -84.258400 -39.732090, -84.258450 -39.732110, -84.258510 -39.732120, -84.258590 -39.732120, -84.259690 -39.732110, -84.260920 -39.732100, -84.261110 -39.732110, -84.261240 -39.732110, -84.261220 -39.731280, -84.261640 -39.731290, -84.261610 -39.732110, -84.262730 -39.732100, -84.262990 -39.732100, -84.267240 -39.732040, -84.267270 -39.732040, -84.267050 -39.729050, -84.267350 -39.729050, -84.267360 -39.728730, -84.267390 -39.728730, -84.267990 -39.728720, -84.267990 -39.729040, -84.269050 -39.729050, -84.269050 -39.729990, -84.269570 -39.730000, -84.269570 -39.730260, -84.269050 -39.730250, -84.269070 -39.731990, -84.269100 -39.732290, -84.268130 -39.732280, -84.268140 -39.732620, -84.268150 -39.732700, -84.268150 -39.732910, -84.268160 -39.733050, -84.269760 -39.733130, -84.269970 -39.732030, -84.270570 -39.732050, -84.270590 -39.732460, -84.271140 -39.732460, -84.271160 -39.732630, -84.272070 -39.732600, -84.272070 -39.732520, -84.272060 -39.732460, -84.272250 -39.732450, -84.272310 -39.732450, -84.272930 -39.732450, -84.273570 -39.732440, -84.273490 -39.731960, -84.273810 -39.731960, -84.274730 -39.731960, -84.275940 -39.731950, -84.277380 -39.731940, -84.277320 -39.732480, -84.279310 -39.732520, -84.279340 -39.731920, -84.279900 -39.731910, -84.279900 -39.732510, -84.279750 -39.732600, -84.279850 -39.733350, -84.279460 -39.733350, -84.279530 -39.734250, -84.279870 -39.734220, -84.279920 -39.734810, -84.279920 -39.734950, -84.279460 -39.734980, -84.279180 -39.734990, -84.278850 -39.734990, -84.279060 -39.735370, -84.279750 -39.735400, -84.279770 -39.735900, -84.281040 -39.735870, -84.281050 -39.736280, -84.281070 -39.737310, -84.275770 -39.737310, -84.275700 -39.738860, -84.275700 -39.738970, -84.275740 -39.739160, -84.275590 -39.739170, -84.274400 -39.739230, -84.274050 -39.739250, -84.273250 -39.739330, -84.272060 -39.739250, -84.271190 -39.739200, -84.271180 -39.739610, -84.268290 -39.739610, -84.268290 -39.739950, -84.268310 -39.740270, -84.268310 -39.740380, -84.268340 -39.740770, -84.268340 -39.741100, -84.268350 -39.741370, -84.268380 -39.742850, -84.268620 -39.742850, -84.269790 -39.742840, -84.270960 -39.742830, -84.271450 -39.742830, -84.271450 -39.744810, -84.271370 -39.746050, -84.272210 -39.746040, -84.272210 -39.746340, -84.272230 -39.746630, -84.271770 -39.746640, -84.271760 -39.747270, -84.271780 -39.747750, -84.271790 -39.747970, -84.273790 -39.747980, -84.273860 -39.749120, -84.271830 -39.749200, -84.271830 -39.749350, -84.271830 -39.749550, -84.270970 -39.749540, -84.270690 -39.749540, -84.270690 -39.749620, -84.270700 -39.749830, -84.270700 -39.749860, -84.269930 -39.749880, -84.269930 -39.749580, -84.269560 -39.749570, -84.268650 -39.749590, -84.268630 -39.750380, -84.268830 -39.751370, -84.268890 -39.751620, -84.268450 -39.751630, -84.267550 -39.751650, -84.267580 -39.752930, -84.268480 -39.752920, -84.268480 -39.753250, -84.268510 -39.754240, -84.267490 -39.754240, -84.267490 -39.754050, -84.267330 -39.754040, -84.266320 -39.754040, -84.266250 -39.754460, -84.267040 -39.754450, -84.267340 -39.754510, -84.268250 -39.754650, -84.268520 -39.754650, -84.269680 -39.754650, -84.272030 -39.754650, -84.275850 -39.754540, -84.277890 -39.750240, -84.277920 -39.750260, -84.277950 -39.750270, -84.278040 -39.750280, -84.278160 -39.750280, -84.278980 -39.750270, -84.280130 -39.750260, -84.281260 -39.750260, -84.281340 -39.750260, -84.281980 -39.750250, -84.282380 -39.750250, -84.282410 -39.750670, -84.282460 -39.751490, -84.282460 -39.751730, -84.282450 -39.751910, -84.282420 -39.752050, -84.282380 -39.752180, -84.282190 -39.752620, -84.282140 -39.752770, -84.282110 -39.752900, -84.282080 -39.753080, -84.282090 -39.753580, -84.282110 -39.754580, -84.282110 -39.755040, -84.282160 -39.758290, -84.282170 -39.759160, -84.279240 -39.759150, -84.279250 -39.758950, -84.277650 -39.758950, -84.277650 -39.760050, -84.277150 -39.760050, -84.276510 -39.760080, -84.276390 -39.760150, -84.276460 -39.761330, -84.276950 -39.761320, -84.277510 -39.761320, -84.278090 -39.761320, -84.278780 -39.761320, -84.279010 -39.761320, -84.280530 -39.761310, -84.280600 -39.760390, -84.282200 -39.760340, -84.282640 -39.760360, -84.282550 -39.759850, -84.284750 -39.759750, -84.285840 -39.759690, -84.285800 -39.760230, -84.285770 -39.760770, -84.285750 -39.760940, -84.285720 -39.761310, -84.285620 -39.761300, -84.284880 -39.761290, -84.284850 -39.761290, -84.285090 -39.762540, -84.288800 -39.762580, -84.289130 -39.762580, -84.289170 -39.762760, -84.289210 -39.764300, -84.291860 -39.764260, -84.292140 -39.770130, -84.292400 -39.770140, -84.297660 -39.770070, -84.297660 -39.764670, -84.297660 -39.764490, -84.292390 -39.764460, -84.292420 -39.762790, -84.295060 -39.762800, -84.295050 -39.762280, -84.296200 -39.762280, -84.296200 -39.761390, -84.301840 -39.761420, -84.301770 -39.763090, -84.310610 -39.763020, -84.310740 -39.765200, -84.310740 -39.765340, -84.310750 -39.765420, -84.310930 -39.768580, -84.310990 -39.769600, -84.311050 -39.770490, -84.311110 -39.771400, -84.311160 -39.772280, -84.311210 -39.773080, -84.311270 -39.774020, -84.311380 -39.775840, -84.311190 -39.775830, -84.309900 -39.775840, -84.308910 -39.775850, -84.308760 -39.772470, -84.302160 -39.772720, -84.302210 -39.775870, -84.301270 -39.775870, -84.301010 -39.775870, -84.300800 -39.775870, -84.300530 -39.775870, -84.298970 -39.775890, -84.297830 -39.775910, -84.295590 -39.775920, -84.293250 -39.775920, -84.292700 -39.775920, -84.292470 -39.775920, -84.292470 -39.776040, -84.292480 -39.777380, -84.300320 -39.777120, -84.300650 -39.777180, -84.301340 -39.777280, -84.301770 -39.777350, -84.301990 -39.777390, -84.302140 -39.777440, -84.302290 -39.777490, -84.302470 -39.777570, -84.302840 -39.777780, -84.303230 -39.778020, -84.303510 -39.778220, -84.303570 -39.778240, -84.303730 -39.778350, -84.304080 -39.778640, -84.304410 -39.778930, -84.304750 -39.779210, -84.304890 -39.779110, -84.305180 -39.778910, -84.305280 -39.778860, -84.305480 -39.778780, -84.305640 -39.778730, -84.305780 -39.778700, -84.305950 -39.778660, -84.306220 -39.778640, -84.306770 -39.778610, -84.307060 -39.779110, -84.307360 -39.779340, -84.307330 -39.779620, -84.307720 -39.779620, -84.307700 -39.780120, -84.305770 -39.780090, -84.306000 -39.780290, -84.306380 -39.780620, -84.306860 -39.781030, -84.306970 -39.781130, -84.307130 -39.781260, -84.307210 -39.781310, -84.307280 -39.781340, -84.306800 -39.781540, -84.301930 -39.781200, -84.301920 -39.783840, -84.292560 -39.783850, -84.292560 -39.783990, -84.282980 -39.784160, -84.282910 -39.785650, -84.280300 -39.784630, -84.272040 -39.781400, -84.271390 -39.781140, -84.270720 -39.780890, -84.267730 -39.779650, -84.268000 -39.780040, -84.265850 -39.779100, -84.264830 -39.778710, -84.264670 -39.778630, -84.264640 -39.778960, -84.264610 -39.779550, -84.264600 -39.779770, -84.264590 -39.780060, -84.264750 -39.780050, -84.265170 -39.779990, -84.265260 -39.779990, -84.265540 -39.780560, -84.265750 -39.781150, -84.267950 -39.783950, -84.269620 -39.786170, -84.269490 -39.786400, -84.270320 -39.786350, -84.270500 -39.786350, -84.270840 -39.786300, -84.271080 -39.786890, -84.271320 -39.787430, -84.271130 -39.787490, -84.270970 -39.787530, -84.270600 -39.787630, -84.270750 -39.788650, -84.270880 -39.790650, -84.270900 -39.793330, -84.270850 -39.794050, -84.271300 -39.794050, -84.271850 -39.794050, -84.271780 -39.794680, -84.269810 -39.794760, -84.269810 -39.794770, -84.269820 -39.795000, -84.269840 -39.795230, -84.268380 -39.795290, -84.268500 -39.797110, -84.269890 -39.797050, -84.271090 -39.797010, -84.271150 -39.797780, -84.270660 -39.797780, -84.270260 -39.797780, -84.269930 -39.797780, -84.269190 -39.797780, -84.268880 -39.797780, -84.268830 -39.798790, -84.268240 -39.798900, -84.264540 -39.798840, -84.263540 -39.798940, -84.263700 -39.799370, -84.263690 -39.800080, -84.261570 -39.799990, -84.256030 -39.800010, -84.253450 -39.800150, -84.253450 -39.799840, -84.253650 -39.797960, -84.253170 -39.797960, -84.252880 -39.797960, -84.252830 -39.797960, -84.252850 -39.796960, -84.252270 -39.797030, -84.252040 -39.797050, -84.251360 -39.796650, -84.252150 -39.796150, -84.252950 -39.794830, -84.252960 -39.794720, -84.253140 -39.792420, -84.253050 -39.791270, -84.253050 -39.790570, -84.253150 -39.789660, -84.252550 -39.789660, -84.252610 -39.789080, -84.251610 -39.789080, -84.251610 -39.788690, -84.251600 -39.788280, -84.251370 -39.788280, -84.250410 -39.788250, -84.249680 -39.788260, -84.249690 -39.788360, -84.249450 -39.788360, -84.249450 -39.788260, -84.249150 -39.788250, -84.248490 -39.788180, -84.248240 -39.788150, -84.247520 -39.788230, -84.247350 -39.788260, -84.246530 -39.788170, -84.246340 -39.788150, -84.244940 -39.788150, -84.244040 -39.788260, -84.243860 -39.790160, -84.244590 -39.790140, -84.244570 -39.790160, -84.244550 -39.790220, -84.244550 -39.790690, -84.244430 -39.790690, -84.244530 -39.791160, -84.244470 -39.791770, -84.244500 -39.792220, -84.244530 -39.792680, -84.243840 -39.792220, -84.243430 -39.791950, -84.243950 -39.791160, -84.242210 -39.791150, -84.239550 -39.791250, -84.239760 -39.793740, -84.238480 -39.793660, -84.238930 -39.798250, -84.239620 -39.798240, -84.239840 -39.798230, -84.242300 -39.798180, -84.243390 -39.798160, -84.243660 -39.798160, -84.243750 -39.798550, -84.244790 -39.798440, -84.244790 -39.799170, -84.244780 -39.800020, -84.244760 -39.800940, -84.244760 -39.801290, -84.244750 -39.801850, -84.244740 -39.802760, -84.243790 -39.802710, -84.243800 -39.802460, -84.243780 -39.802420, -84.243760 -39.802360, -84.243720 -39.802310, -84.243670 -39.802260, -84.243600 -39.802220, -84.243540 -39.802180, -84.243470 -39.802160, -84.243420 -39.802150, -84.243360 -39.802150, -84.243210 -39.802160, -84.242170 -39.802190, -84.242190 -39.801710, -84.241660 -39.801720, -84.241650 -39.802200, -84.241250 -39.802220, -84.241240 -39.801750, -84.240330 -39.801760, -84.240340 -39.801820, -84.240330 -39.802250, -84.240900 -39.802230, -84.240900 -39.802370, -84.240090 -39.802430, -84.239810 -39.803060, -84.238890 -39.805270, -84.237200 -39.805260, -84.237220 -39.805000, -84.236650 -39.805020, -84.236350 -39.805040, -84.236460 -39.804630, -84.235640 -39.804560, -84.235550 -39.804850, -84.235560 -39.805080, -84.235660 -39.805940, -84.235050 -39.806030, -84.235040 -39.805620, -84.235020 -39.805150, -84.235020 -39.805090, -84.235020 -39.804750, -84.235040 -39.804010, -84.235050 -39.803960, -84.235060 -39.803860, -84.235090 -39.803540, -84.235130 -39.802470, -84.235170 -39.801480, -84.236210 -39.801460, -84.236220 -39.801850, -84.235740 -39.801960, -84.235670 -39.802460, -84.235750 -39.802460, -84.236700 -39.802420, -84.238260 -39.802370, -84.238290 -39.801570, -84.238960 -39.801660, -84.238930 -39.801400, -84.238860 -39.800980, -84.235180 -39.800970, -84.235230 -39.799690, -84.235250 -39.798470, -84.235220 -39.798290, -84.235090 -39.798280, -84.234630 -39.798290, -84.234180 -39.798290, -84.233920 -39.798290, -84.232780 -39.798310, -84.231630 -39.798330, -84.231100 -39.798340, -84.230300 -39.798350, -84.230040 -39.797130, -84.229540 -39.797100, -84.229750 -39.796240, -84.229410 -39.795710, -84.229450 -39.795190, -84.229450 -39.794410, -84.229510 -39.794230, -84.230470 -39.794100, -84.231620 -39.794240, -84.231860 -39.794240, -84.231850 -39.794080, -84.231850 -39.793740, -84.231600 -39.793740, -84.230810 -39.793750, -84.230810 -39.793460, -84.231600 -39.793450, -84.231850 -39.793450, -84.232020 -39.793450, -84.232020 -39.793070, -84.232380 -39.793070, -84.232380 -39.792910, -84.232530 -39.792910, -84.232530 -39.793070, -84.232810 -39.793070, -84.232810 -39.793450, -84.235150 -39.793450, -84.235130 -39.792220, -84.235120 -39.792150, -84.233860 -39.792160, -84.233850 -39.792510, -84.232920 -39.792730, -84.232800 -39.792840, -84.232820 -39.792100, -84.231940 -39.792060, -84.231950 -39.791750, -84.231940 -39.791000, -84.231540 -39.791040, -84.231560 -39.791750, -84.230980 -39.791750, -84.230960 -39.791430, -84.230410 -39.791440, -84.230410 -39.791380, -84.230410 -39.791220, -84.229940 -39.791050, -84.229960 -39.792650, -84.229930 -39.792900, -84.229900 -39.793270, -84.230450 -39.793260, -84.230450 -39.793290, -84.230460 -39.793490, -84.230460 -39.793750, -84.229870 -39.793740, -84.229840 -39.794070, -84.229320 -39.794110, -84.228190 -39.794320, -84.225840 -39.794280, -84.225840 -39.793990, -84.225840 -39.793660, -84.224870 -39.793630, -84.223930 -39.793720, -84.222910 -39.793690, -84.222120 -39.793570, -84.222050 -39.793950, -84.220050 -39.793950, -84.220060 -39.794290, -84.222140 -39.794280, -84.222140 -39.794760, -84.222220 -39.795160, -84.222220 -39.796230, -84.222230 -39.796730, -84.222250 -39.796800, -84.222250 -39.797310, -84.220220 -39.797360, -84.220310 -39.798470, -84.220320 -39.798840, -84.220030 -39.798830, -84.220020 -39.799090, -84.219790 -39.799100, -84.219770 -39.798780, -84.219440 -39.798760, -84.219330 -39.799190, -84.219720 -39.800050, -84.219740 -39.800420, -84.218910 -39.800500, -84.219050 -39.800790, -84.218560 -39.800920, -84.218430 -39.800940, -84.218310 -39.800410, -84.217150 -39.800560, -84.215890 -39.800550, -84.214680 -39.800560, -84.213490 -39.800650, -84.212300 -39.800650, -84.211090 -39.800560, -84.209850 -39.800460, -84.209760 -39.800460, -84.209410 -39.800710, -84.209240 -39.800520, -84.209230 -39.800500, -84.208570 -39.800650, -84.208210 -39.800460, -84.207810 -39.800400, -84.207770 -39.800410, -84.207450 -39.800250, -84.206150 -39.800350, -84.205650 -39.800350, -84.205670 -39.803940, -84.205460 -39.805800, -84.205450 -39.805950, -84.206060 -39.808180, -84.206460 -39.808730, -84.217120 -39.813730, -84.217450 -39.813850, -84.217640 -39.813980, -84.218050 -39.814250, -84.220160 -39.816120, -84.221550 -39.817350, -84.221830 -39.817760, -84.222250 -39.818350, -84.221950 -39.820250, -84.223220 -39.826560, -84.222920 -39.826560, -84.218650 -39.826560, -84.218570 -39.826600, -84.218490 -39.826630, -84.218390 -39.826650, -84.218110 -39.826690, -84.217800 -39.826730, -84.217600 -39.826760, -84.217510 -39.826790, -84.217440 -39.826830, -84.217410 -39.826850, -84.215050 -39.826940, -84.215050 -39.828590, -84.211390 -39.828590, -84.211130 -39.828590, -84.211280 -39.829340, -84.210850 -39.829300, -84.210860 -39.831980, -84.210880 -39.832020, -84.210930 -39.834210, -84.210360 -39.834220, -84.210320 -39.834200, -84.210270 -39.834170, -84.208840 -39.834180, -84.207770 -39.834200, -84.207700 -39.834200, -84.207730 -39.837120, -84.207830 -39.837890, -84.198680 -39.837920, -84.198670 -39.837340, -84.198670 -39.837110, -84.198960 -39.837120, -84.199730 -39.837120, -84.199720 -39.835870, -84.201320 -39.835870, -84.201290 -39.834650, -84.201270 -39.834270, -84.201510 -39.828740, -84.201430 -39.827340, -84.202840 -39.827320, -84.202840 -39.826730, -84.202800 -39.822740, -84.203620 -39.822740, -84.205510 -39.822750, -84.205510 -39.821770, -84.205440 -39.820870, -84.201500 -39.820750, -84.201440 -39.819600, -84.200950 -39.819610, -84.201040 -39.818600, -84.200540 -39.818600, -84.200540 -39.818250, -84.200290 -39.818250, -84.200250 -39.817470, -84.200620 -39.817470, -84.200620 -39.817280, -84.201450 -39.817280, -84.201450 -39.816350, -84.199650 -39.814650, -84.199450 -39.814750, -84.198050 -39.812550, -84.198650 -39.812220, -84.199350 -39.811650, -84.198650 -39.811240, -84.198060 -39.809250, -84.199440 -39.809250, -84.199340 -39.808450, -84.198650 -39.808550, -84.198390 -39.807640, -84.197150 -39.807650, -84.197070 -39.807280, -84.197080 -39.806870, -84.196860 -39.806880, -84.196880 -39.806730, -84.196900 -39.806510, -84.196760 -39.806510, -84.196740 -39.806100, -84.196750 -39.805950, -84.197150 -39.805990, -84.197890 -39.805910, -84.197900 -39.804740, -84.196430 -39.804750, -84.196400 -39.804750, -84.196030 -39.803580, -84.195640 -39.802590, -84.195240 -39.801580, -84.195160 -39.801580, -84.194980 -39.801580, -84.194740 -39.801590, -84.194680 -39.801600, -84.194620 -39.801630, -84.194560 -39.801660, -84.194450 -39.801380, -84.194280 -39.800920, -84.194950 -39.800850, -84.194810 -39.800540, -84.194730 -39.800330, -84.194580 -39.800050, -84.194790 -39.799900, -84.194460 -39.799780, -84.194380 -39.799680, -84.194050 -39.799060, -84.193580 -39.797660, -84.193500 -39.797470, -84.194530 -39.797460, -84.194540 -39.797250, -84.194410 -39.796190, -84.193590 -39.796290, -84.194050 -39.794540, -84.193160 -39.794550, -84.193210 -39.794180, -84.193170 -39.793460, -84.193970 -39.793470, -84.196430 -39.793450, -84.196680 -39.793440, -84.196680 -39.793200, -84.196410 -39.793210, -84.196480 -39.793080, -84.196560 -39.792830, -84.196610 -39.792550, -84.196630 -39.792440, -84.196620 -39.792350, -84.196610 -39.792300, -84.196570 -39.792250, -84.196640 -39.791310, -84.196210 -39.791330, -84.195770 -39.791350, -84.195490 -39.791360, -84.195720 -39.790020, -84.195750 -39.789850, -84.195570 -39.788330, -84.194710 -39.787670, -84.194240 -39.787750, -84.190270 -39.789460, -84.190460 -39.790110, -84.190200 -39.790240, -84.190170 -39.790250, -84.190070 -39.790280, -84.189900 -39.790320, -84.189560 -39.790440, -84.188860 -39.790730, -84.188410 -39.790920, -84.187900 -39.791140, -84.187520 -39.791310, -84.186880 -39.791630, -84.186860 -39.791670, -84.185980 -39.792130, -84.185160 -39.792630, -84.183420 -39.793620, -84.179360 -39.795530, -84.177390 -39.796590, -84.176740 -39.796960, -84.176520 -39.798110, -84.176470 -39.800200, -84.177220 -39.799770, -84.177700 -39.799490, -84.185140 -39.797350, -84.185140 -39.800090, -84.184860 -39.800210, -84.183940 -39.800700, -84.183640 -39.800860, -84.183380 -39.801020, -84.183220 -39.801140, -84.183090 -39.801260, -84.182880 -39.801480, -84.182800 -39.801570, -84.182410 -39.802010, -84.182250 -39.802170, -84.182170 -39.802250, -84.182020 -39.802070, -84.182660 -39.801370, -84.183160 -39.800970, -84.182940 -39.800740, -84.182470 -39.801110, -84.182170 -39.801330, -84.181140 -39.801870, -84.179350 -39.801960, -84.179350 -39.803450, -84.180420 -39.803440, -84.180270 -39.803520, -84.179940 -39.803720, -84.179300 -39.804070, -84.178940 -39.804290, -84.178490 -39.804570, -84.177970 -39.804900, -84.177260 -39.805360, -84.176650 -39.805740, -84.176340 -39.805920, -84.176180 -39.806010, -84.175680 -39.806250, -84.175680 -39.806480, -84.177080 -39.805680, -84.176710 -39.808500, -84.175990 -39.808610, -84.175830 -39.809950, -84.175740 -39.810720, -84.176430 -39.810730, -84.176320 -39.811130, -84.175810 -39.811330, -84.175560 -39.813150, -84.176440 -39.813250, -84.179320 -39.813240, -84.179330 -39.814000, -84.179350 -39.815230, -84.179370 -39.815660, -84.179370 -39.816030, -84.179390 -39.816970, -84.179420 -39.817880, -84.176050 -39.817860, -84.176020 -39.820000, -84.176040 -39.820400, -84.177470 -39.820340, -84.177610 -39.821490, -84.178380 -39.821520, -84.178410 -39.820630, -84.179470 -39.820580, -84.179520 -39.822730, -84.179540 -39.823530, -84.176740 -39.823530, -84.176750 -39.823650, -84.177810 -39.823650, -84.178070 -39.825660, -84.177860 -39.826190, -84.179610 -39.826670, -84.179610 -39.826740, -84.179610 -39.826940, -84.178010 -39.827110, -84.177540 -39.827160, -84.177770 -39.831950, -84.177270 -39.831950, -84.177160 -39.832350, -84.177760 -39.832350, -84.177840 -39.834550, -84.176830 -39.834550, -84.176340 -39.834550, -84.176040 -39.834550, -84.175440 -39.836950, -84.173340 -39.838850, -84.172470 -39.840260, -84.172410 -39.840360, -84.172250 -39.842100, -84.172240 -39.842150, -84.173220 -39.843410, -84.173640 -39.843950, -84.173640 -39.845450, -84.173540 -39.845150, -84.172940 -39.845350, -84.172130 -39.845010, -84.171200 -39.844820, -84.170370 -39.844640, -84.169700 -39.844520, -84.167860 -39.844150, -84.167850 -39.844330, -84.167840 -39.844550, -84.167820 -39.845120, -84.167770 -39.846230, -84.167750 -39.846900, -84.167710 -39.847750, -84.167710 -39.848360, -84.167730 -39.848450, -84.167750 -39.848500, -84.167680 -39.850240, -84.169990 -39.850500, -84.171800 -39.850640, -84.172390 -39.850690, -84.172930 -39.848770, -84.173270 -39.848210, -84.173580 -39.848050, -84.173650 -39.848060, -84.173710 -39.848550, -84.173840 -39.849320, -84.173920 -39.849840, -84.173800 -39.850040, -84.173210 -39.850810, -84.172720 -39.851740, -84.171920 -39.852720, -84.171290 -39.853390, -84.171160 -39.854090, -84.170990 -39.854890, -84.170990 -39.855660, -84.170420 -39.857140, -84.170310 -39.857120, -84.169410 -39.856900, -84.157590 -39.856570, -84.157670 -39.852920, -84.157900 -39.852600, -84.158400 -39.852400, -84.158790 -39.852350, -84.159260 -39.850570, -84.159240 -39.850100, -84.159310 -39.849620, -84.159640 -39.848100, -84.159560 -39.848100, -84.159420 -39.848120, -84.159250 -39.848140, -84.159240 -39.848020, -84.159220 -39.847870, -84.159190 -39.847610, -84.159190 -39.847480, -84.159200 -39.846500, -84.159210 -39.846350, -84.159240 -39.846210, -84.159270 -39.846100, -84.159300 -39.845980, -84.159310 -39.845810, -84.159310 -39.845690, -84.159290 -39.845570, -84.159170 -39.845240, -84.159130 -39.845080, -84.159120 -39.844930, -84.159130 -39.844800, -84.159190 -39.844370, -84.159190 -39.844110, -84.159150 -39.843550, -84.159120 -39.843300, -84.159100 -39.843120, -84.159060 -39.842930, -84.159000 -39.842650, -84.158920 -39.842360, -84.158860 -39.842160, -84.158760 -39.841890, -84.158710 -39.841800, -84.158660 -39.841730, -84.158860 -39.841740, -84.159490 -39.841730, -84.159800 -39.841730, -84.162320 -39.841880, -84.162950 -39.836060, -84.163060 -39.835100, -84.163480 -39.831530, -84.163560 -39.830900, -84.163610 -39.830470, -84.158540 -39.831050, -84.158540 -39.830550, -84.162360 -39.829550, -84.165060 -39.828260, -84.165110 -39.828240, -84.165290 -39.828150, -84.166990 -39.827340, -84.168640 -39.826650, -84.168440 -39.826050, -84.168260 -39.825050, -84.165900 -39.825150, -84.166070 -39.824680, -84.166290 -39.824040, -84.167240 -39.824040, -84.167270 -39.823230, -84.166560 -39.823250, -84.166880 -39.822330, -84.166990 -39.821980, -84.167320 -39.820900, -84.167400 -39.820630, -84.167550 -39.820080, -84.167200 -39.820090, -84.165730 -39.820100, -84.165410 -39.820100, -84.164710 -39.820110, -84.164700 -39.821210, -84.165890 -39.821200, -84.165460 -39.822080, -84.164910 -39.823150, -84.166160 -39.823120, -84.166060 -39.823360, -84.165900 -39.823790, -84.165280 -39.825430, -84.165060 -39.826110, -84.163920 -39.826130, -84.163890 -39.825460, -84.162120 -39.825500, -84.161770 -39.825510, -84.161420 -39.825510, -84.159960 -39.823580, -84.159880 -39.823610, -84.159560 -39.823750, -84.158640 -39.822480 Z"/>
  </g>
</svg>
