<?xml version="1.0" encoding="utf-8"?>
<svg xmlns="http://www.w3.org/2000/svg" version="1.2" viewBox="-84.311270 -39.857120 0.218330 0.155280" viewport-fill="lightblue" style="background-color:lightblue;">
  <g stroke="rgba(0,0,0,0.5)" stroke-width="0.25%" fill="beige">
    <!--
        PointReduction\Algorithms\Opheim::apply($givenPoints, 0.001);
        Original 2151 points reduced to 684
    -->
    <path d="M -84.158640 -39.822480 L -84.158790 -39.820130, -84.157130 -39.820120, -84.155820 -39.820110, -84.153640 -39.821320, -84.151330 -39.820870, -84.148900 -39.820870, -84.146670 -39.821790, -84.146470 -39.819710, -84.148380 -39.818470, -84.146330 -39.817780, -84.144660 -39.818910, -84.144530 -39.820840, -84.143390 -39.822530, -84.141580 -39.822770, -84.140260 -39.822710, -84.140040 -39.826340, -84.139690 -39.826310, -84.135840 -39.826120, -84.136200 -39.823750, -84.138400 -39.822750, -84.138550 -39.821260, -84.142460 -39.821300, -84.142560 -39.820290, -84.143000 -39.818740, -84.137610 -39.818800, -84.136000 -39.818810, -84.133540 -39.819050, -84.131650 -39.818550, -84.129320 -39.818390, -84.128020 -39.818460, -84.126860 -39.819530, -84.125590 -39.820700, -84.119320 -39.820470, -84.119170 -39.821440, -84.118890 -39.825310, -84.118120 -39.825260, -84.116030 -39.825140, -84.113550 -39.825000, -84.111470 -39.824870, -84.110680 -39.826920, -84.112860 -39.827170, -84.111950 -39.829280, -84.111900 -39.829920, -84.111640 -39.832190, -84.109280 -39.831580, -84.106840 -39.831860, -84.107300 -39.834110, -84.109350 -39.835420, -84.108390 -39.837120, -84.107910 -39.837620, -84.102140 -39.837370, -84.100580 -39.838790, -84.098650 -39.838680, -84.096540 -39.838560, -84.094390 -39.838430, -84.092940 -39.838340, -84.094340 -39.823770, -84.094340 -39.823760, -84.094890 -39.818810, -84.095430 -39.817980, -84.099840 -39.818070, -84.104430 -39.818180, -84.105140 -39.820460, -84.105840 -39.819160, -84.105870 -39.817310, -84.107780 -39.817330, -84.110030 -39.816610, -84.111130 -39.815270, -84.113040 -39.813740, -84.114150 -39.815420, -84.115450 -39.817140, -84.115260 -39.817900, -84.118130 -39.818050, -84.119270 -39.818190, -84.119530 -39.814750, -84.119570 -39.814400, -84.122910 -39.814480, -84.123340 -39.812810, -84.123460 -39.810800, -84.120530 -39.810640, -84.118880 -39.810550, -84.118690 -39.808590, -84.121420 -39.808650, -84.123400 -39.809810, -84.124970 -39.811000, -84.126590 -39.810690, -84.130330 -39.810710, -84.130290 -39.811210, -84.133280 -39.811280, -84.135270 -39.811380, -84.136870 -39.812740, -84.142650 -39.812920, -84.142620 -39.814130, -84.145460 -39.814390, -84.147250 -39.814320, -84.149960 -39.814370, -84.149700 -39.811920, -84.152300 -39.811850, -84.152730 -39.811800, -84.150440 -39.809650, -84.153040 -39.804950, -84.156640 -39.801150, -84.158240 -39.800050, -84.164640 -39.798050, -84.163540 -39.798050, -84.160280 -39.797990, -84.161660 -39.796870, -84.159350 -39.797450, -84.157930 -39.798790, -84.156540 -39.799940, -84.155530 -39.797960, -84.153710 -39.797820, -84.153660 -39.795100, -84.154330 -39.794490, -84.152680 -39.792730, -84.147760 -39.792560, -84.147290 -39.790340, -84.144970 -39.789470, -84.143070 -39.788230, -84.141320 -39.787650, -84.139660 -39.788480, -84.137780 -39.789370, -84.135870 -39.790100, -84.134340 -39.790660, -84.132560 -39.791300, -84.130230 -39.792140, -84.129160 -39.792520, -84.127240 -39.792730, -84.125320 -39.793920, -84.123230 -39.794670, -84.121000 -39.795470, -84.118820 -39.796250, -84.116770 -39.796990, -84.115190 -39.797480, -84.117310 -39.800240, -84.116120 -39.801440, -84.115020 -39.803180, -84.114040 -39.802960, -84.111850 -39.802490, -84.110440 -39.802650, -84.112120 -39.805390, -84.112800 -39.807770, -84.110810 -39.808870, -84.109290 -39.809760, -84.104530 -39.809530, -84.102440 -39.808440, -84.101120 -39.809370, -84.097680 -39.809190, -84.095750 -39.809170, -84.096040 -39.804750, -84.096140 -39.803780, -84.096640 -39.798760, -84.096880 -39.796390, -84.096940 -39.794250, -84.097680 -39.793460, -84.100670 -39.792400, -84.108120 -39.789860, -84.115050 -39.787400, -84.120010 -39.785620, -84.120410 -39.785470, -84.127200 -39.783110, -84.131550 -39.781630, -84.132240 -39.779640, -84.134490 -39.779020, -84.136460 -39.778880, -84.136410 -39.776970, -84.134810 -39.775250, -84.133100 -39.773530, -84.131710 -39.773520, -84.130020 -39.773510, -84.127700 -39.772680, -84.129380 -39.770940, -84.132610 -39.771120, -84.134550 -39.771710, -84.135440 -39.770230, -84.136750 -39.768130, -84.136960 -39.765330, -84.137190 -39.763150, -84.135440 -39.763150, -84.132800 -39.763120, -84.130660 -39.762890, -84.128640 -39.762760, -84.127190 -39.762670, -84.126310 -39.760850, -84.124090 -39.760130, -84.122040 -39.759380, -84.123320 -39.757350, -84.120210 -39.757130, -84.120330 -39.754750, -84.119940 -39.752400, -84.120150 -39.749940, -84.120560 -39.747500, -84.120640 -39.746530, -84.124770 -39.747370, -84.128080 -39.748310, -84.126600 -39.746950, -84.124360 -39.746220, -84.123500 -39.745940, -84.125520 -39.743510, -84.127630 -39.743590, -84.129370 -39.742050, -84.130230 -39.740200, -84.130570 -39.738150, -84.128750 -39.737550, -84.124820 -39.737300, -84.121550 -39.737200, -84.119240 -39.737060, -84.117730 -39.736980, -84.114920 -39.736740, -84.113210 -39.736750, -84.110730 -39.736680, -84.108910 -39.735500, -84.109520 -39.733580, -84.109550 -39.731420, -84.109850 -39.729060, -84.114130 -39.729340, -84.116480 -39.729710, -84.118000 -39.730130, -84.119380 -39.729910, -84.119740 -39.727760, -84.122300 -39.727750, -84.124500 -39.727870, -84.126830 -39.727870, -84.129270 -39.728090, -84.130040 -39.727150, -84.130140 -39.725460, -84.130420 -39.722990, -84.130540 -39.722660, -84.133010 -39.722650, -84.134940 -39.721350, -84.136430 -39.722750, -84.138590 -39.722850, -84.140760 -39.723050, -84.142070 -39.720960, -84.149100 -39.721280, -84.149830 -39.720910, -84.152730 -39.720970, -84.152990 -39.719650, -84.153190 -39.716930, -84.155260 -39.717020, -84.157450 -39.717210, -84.159280 -39.717380, -84.160650 -39.718850, -84.161240 -39.719350, -84.163540 -39.724750, -84.163550 -39.724840, -84.163720 -39.727740, -84.164340 -39.730150, -84.164540 -39.731050, -84.166950 -39.732810, -84.169390 -39.733100, -84.171580 -39.734080, -84.174000 -39.734320, -84.175500 -39.734090, -84.177470 -39.733780, -84.179910 -39.733400, -84.182370 -39.733190, -84.184080 -39.733480, -84.186370 -39.732590, -84.188460 -39.731600, -84.190410 -39.730570, -84.191970 -39.729320, -84.193800 -39.728000, -84.196150 -39.727560, -84.197610 -39.727760, -84.199330 -39.727990, -84.204050 -39.728670, -84.204490 -39.726340, -84.206970 -39.726540, -84.206110 -39.728590, -84.208050 -39.728990, -84.210470 -39.729100, -84.211910 -39.730450, -84.213380 -39.732120, -84.215640 -39.732450, -84.217540 -39.731750, -84.223340 -39.728150, -84.227350 -39.723520, -84.228140 -39.714750, -84.230140 -39.711250, -84.235340 -39.703150, -84.236440 -39.703150, -84.238120 -39.703180, -84.242630 -39.703120, -84.247510 -39.703090, -84.248170 -39.703110, -84.251350 -39.702860, -84.252230 -39.702990, -84.252240 -39.705300, -84.252250 -39.707740, -84.252260 -39.710110, -84.252280 -39.712470, -84.253120 -39.714070, -84.253160 -39.715110, -84.253240 -39.717050, -84.253340 -39.719250, -84.253350 -39.720550, -84.258870 -39.720080, -84.258720 -39.719360, -84.263590 -39.719320, -84.263570 -39.716980, -84.263510 -39.715270, -84.261480 -39.715190, -84.261610 -39.712700, -84.258390 -39.712740, -84.258030 -39.710410, -84.258980 -39.708110, -84.259640 -39.707260, -84.261940 -39.707240, -84.262000 -39.706010, -84.264340 -39.705830, -84.263640 -39.703530, -84.264360 -39.702860, -84.266130 -39.702830, -84.267920 -39.701870, -84.270150 -39.701840, -84.272260 -39.702740, -84.274530 -39.702710, -84.276060 -39.702700, -84.277640 -39.702680, -84.279360 -39.702630, -84.278930 -39.704440, -84.279080 -39.706440, -84.279290 -39.708160, -84.277450 -39.709750, -84.276980 -39.712190, -84.277250 -39.712510, -84.275600 -39.714440, -84.275550 -39.714490, -84.278060 -39.715540, -84.278060 -39.716910, -84.280850 -39.716860, -84.279360 -39.718470, -84.280940 -39.717310, -84.282310 -39.717320, -84.281050 -39.715260, -84.281000 -39.713240, -84.285300 -39.713270, -84.285330 -39.714510, -84.290830 -39.714490, -84.290240 -39.716840, -84.287270 -39.716890, -84.287310 -39.721360, -84.286360 -39.721880, -84.284060 -39.721910, -84.284050 -39.720150, -84.280770 -39.719830, -84.278340 -39.720320, -84.277350 -39.720170, -84.275210 -39.719010, -84.276440 -39.716910, -84.274470 -39.715740, -84.272080 -39.716200, -84.272220 -39.718300, -84.273550 -39.719290, -84.273420 -39.720800, -84.269950 -39.720790, -84.269360 -39.721450, -84.263310 -39.721500, -84.265270 -39.722820, -84.267500 -39.722610, -84.267100 -39.725040, -84.265090 -39.726220, -84.263590 -39.725690, -84.260850 -39.725720, -84.259440 -39.726270, -84.260560 -39.728490, -84.259430 -39.729480, -84.257320 -39.730690, -84.258590 -39.732120, -84.260920 -39.732100, -84.262990 -39.732100, -84.267240 -39.732040, -84.267270 -39.732040, -84.267050 -39.729050, -84.269050 -39.729990, -84.268130 -39.732280, -84.270590 -39.732460, -84.272930 -39.732450, -84.274730 -39.731960, -84.275940 -39.731950, -84.277320 -39.732480, -84.279340 -39.731920, -84.279870 -39.734220, -84.281050 -39.736280, -84.281070 -39.737310, -84.275770 -39.737310, -84.274400 -39.739230, -84.272060 -39.739250, -84.271180 -39.739610, -84.268290 -39.739610, -84.268350 -39.741370, -84.269790 -39.742840, -84.271450 -39.742830, -84.271450 -39.744810, -84.271760 -39.747270, -84.273790 -39.747980, -84.271830 -39.749350, -84.269560 -39.749570, -84.268450 -39.751630, -84.268480 -39.753250, -84.266320 -39.754040, -84.268520 -39.754650, -84.269680 -39.754650, -84.272030 -39.754650, -84.275850 -39.754540, -84.277890 -39.750240, -84.280130 -39.750260, -84.282410 -39.750670, -84.282080 -39.753080, -84.282110 -39.755040, -84.282160 -39.758290, -84.282170 -39.759160, -84.279240 -39.759150, -84.277150 -39.760050, -84.279010 -39.761320, -84.280600 -39.760390, -84.282550 -39.759850, -84.284750 -39.759750, -84.284850 -39.761290, -84.285090 -39.762540, -84.288800 -39.762580, -84.289210 -39.764300, -84.291860 -39.764260, -84.292140 -39.770130, -84.292400 -39.770140, -84.297660 -39.770070, -84.297660 -39.764670, -84.297660 -39.764490, -84.292390 -39.764460, -84.292420 -39.762790, -84.295060 -39.762800, -84.296200 -39.761390, -84.301840 -39.761420, -84.301770 -39.763090, -84.310610 -39.763020, -84.310750 -39.765420, -84.310930 -39.768580, -84.311050 -39.770490, -84.311160 -39.772280, -84.311270 -39.774020, -84.309900 -39.775840, -84.308910 -39.775850, -84.308760 -39.772470, -84.302160 -39.772720, -84.302210 -39.775870, -84.300530 -39.775870, -84.298970 -39.775890, -84.297830 -39.775910, -84.295590 -39.775920, -84.293250 -39.775920, -84.292480 -39.777380, -84.300320 -39.777120, -84.302470 -39.777570, -84.304410 -39.778930, -84.306770 -39.778610, -84.306860 -39.781030, -84.306800 -39.781540, -84.301930 -39.781200, -84.301920 -39.783840, -84.292560 -39.783850, -84.292560 -39.783990, -84.282980 -39.784160, -84.282910 -39.785650, -84.280300 -39.784630, -84.272040 -39.781400, -84.270720 -39.780890, -84.267730 -39.779650, -84.265850 -39.779100, -84.265750 -39.781150, -84.267950 -39.783950, -84.269620 -39.786170, -84.270600 -39.787630, -84.270750 -39.788650, -84.270880 -39.790650, -84.270900 -39.793330, -84.269840 -39.795230, -84.271090 -39.797010, -84.268880 -39.797780, -84.268240 -39.798900, -84.264540 -39.798840, -84.263690 -39.800080, -84.261570 -39.799990, -84.256030 -39.800010, -84.253450 -39.800150, -84.252830 -39.797960, -84.252150 -39.796150, -84.252960 -39.794720, -84.253140 -39.792420, -84.253050 -39.790570, -84.251610 -39.788690, -84.249150 -39.788250, -84.247350 -39.788260, -84.244940 -39.788150, -84.244550 -39.790220, -84.243950 -39.791160, -84.242210 -39.791150, -84.239550 -39.791250, -84.239760 -39.793740, -84.238480 -39.793660, -84.238930 -39.798250, -84.239840 -39.798230, -84.242300 -39.798180, -84.243750 -39.798550, -84.244780 -39.800020, -84.244750 -39.801850, -84.243210 -39.802160, -84.241240 -39.801750, -84.239810 -39.803060, -84.238890 -39.805270, -84.236650 -39.805020, -84.235090 -39.803540, -84.236700 -39.802420, -84.238930 -39.801400, -84.238860 -39.800980, -84.235180 -39.800970, -84.235230 -39.799690, -84.233920 -39.798290, -84.231630 -39.798330, -84.229540 -39.797100, -84.229450 -39.795190, -84.231620 -39.794240, -84.232810 -39.793450, -84.235150 -39.793450, -84.232800 -39.792840, -84.230960 -39.791430, -84.230460 -39.793750, -84.228190 -39.794320, -84.225840 -39.793660, -84.223930 -39.793720, -84.222050 -39.793950, -84.222220 -39.796230, -84.220220 -39.797360, -84.219330 -39.799190, -84.218310 -39.800410, -84.215890 -39.800550, -84.213490 -39.800650, -84.211090 -39.800560, -84.209230 -39.800500, -84.207450 -39.800250, -84.205650 -39.800350, -84.205670 -39.803940, -84.205450 -39.805950, -84.206060 -39.808180, -84.206460 -39.808730, -84.217120 -39.813730, -84.218050 -39.814250, -84.220160 -39.816120, -84.221830 -39.817760, -84.221950 -39.820250, -84.223220 -39.826560, -84.222920 -39.826560, -84.218650 -39.826560, -84.217410 -39.826850, -84.215050 -39.826940, -84.215050 -39.828590, -84.211390 -39.828590, -84.210850 -39.829300, -84.210860 -39.831980, -84.210270 -39.834170, -84.208840 -39.834180, -84.207700 -39.834200, -84.207730 -39.837120, -84.207830 -39.837890, -84.198680 -39.837920, -84.199720 -39.835870, -84.201270 -39.834270, -84.201510 -39.828740, -84.202840 -39.826730, -84.202800 -39.822740, -84.203620 -39.822740, -84.205510 -39.821770, -84.205440 -39.820870, -84.201500 -39.820750, -84.200540 -39.818600, -84.201450 -39.816350, -84.199650 -39.814650, -84.199450 -39.814750, -84.198050 -39.812550, -84.198650 -39.811240, -84.199440 -39.809250, -84.198390 -39.807640, -84.197890 -39.805910, -84.196400 -39.804750, -84.195640 -39.802590, -84.194730 -39.800330, -84.194050 -39.799060, -84.194540 -39.797250, -84.193590 -39.796290, -84.193210 -39.794180, -84.193970 -39.793470, -84.196430 -39.793450, -84.195490 -39.791360, -84.195750 -39.789850, -84.194710 -39.787670, -84.194240 -39.787750, -84.190270 -39.789460, -84.188410 -39.790920, -84.186860 -39.791670, -84.185160 -39.792630, -84.183420 -39.793620, -84.179360 -39.795530, -84.177390 -39.796590, -84.176520 -39.798110, -84.177700 -39.799490, -84.185140 -39.797350, -84.185140 -39.800090, -84.183090 -39.801260, -84.181140 -39.801870, -84.179940 -39.803720, -84.177970 -39.804900, -84.176180 -39.806010, -84.177080 -39.805680, -84.176710 -39.808500, -84.176430 -39.810730, -84.175810 -39.811330, -84.176440 -39.813250, -84.179320 -39.813240, -84.179370 -39.815660, -84.179420 -39.817880, -84.176050 -39.817860, -84.176020 -39.820000, -84.177610 -39.821490, -84.179520 -39.822730, -84.179540 -39.823530, -84.176740 -39.823530, -84.177810 -39.823650, -84.178070 -39.825660, -84.177540 -39.827160, -84.177770 -39.831950, -84.177760 -39.832350, -84.176830 -39.834550, -84.176040 -39.834550, -84.175440 -39.836950, -84.173340 -39.838850, -84.172410 -39.840360, -84.172240 -39.842150, -84.173640 -39.843950, -84.172130 -39.845010, -84.169700 -39.844520, -84.167820 -39.845120, -84.167750 -39.846900, -84.167750 -39.848500, -84.167680 -39.850240, -84.169990 -39.850500, -84.172390 -39.850690, -84.172930 -39.848770, -84.173210 -39.850810, -84.171920 -39.852720, -84.170990 -39.854890, -84.170310 -39.857120, -84.169410 -39.856900, -84.157590 -39.856570, -84.157670 -39.852920, -84.158790 -39.852350, -84.159240 -39.850100, -84.159190 -39.847610, -84.159170 -39.845240, -84.159060 -39.842930, -84.159800 -39.841730, -84.162320 -39.841880, -84.162950 -39.836060, -84.163060 -39.835100, -84.163480 -39.831530, -84.163610 -39.830470, -84.158540 -39.831050, -84.158540 -39.830550, -84.162360 -39.829550, -84.165060 -39.828260, -84.166990 -39.827340, -84.168440 -39.826050, -84.168260 -39.825050, -84.166560 -39.823250, -84.167320 -39.820900, -84.165410 -39.820100, -84.165460 -39.822080, -84.165900 -39.823790, -84.165060 -39.826110, -84.163890 -39.825460, -84.161420 -39.825510, -84.159880 -39.823610, -84.159560 -39.823750, -84.158640 -39.822480 Z"/>
  </g>
</svg>
