<?xml version="1.0" encoding="utf-8"?>
<svg xmlns="http://www.w3.org/2000/svg" version="1.2" viewBox="-84.311270 -39.857120 0.218330 0.155280" viewport-fill="lightblue" style="background-color:lightblue;">
  <g stroke="rgba(0,0,0,0.5)" stroke-width="0.25%" fill="beige">
    <!--
        PointReduction\Algorithms\ReumannWitkam::apply($givenPoints, 0.001);
        Original 2151 points reduced to 872
    -->
    <path d="M -84.158640 -39.822480 L -84.159300 -39.821950, -84.158790 -39.820130, -84.156150 -39.820110, -84.155820 -39.820110, -84.154260 -39.820930, -84.153180 -39.821360, -84.152010 -39.821030, -84.151010 -39.820130, -84.149760 -39.820440, -84.148900 -39.820870, -84.147710 -39.821520, -84.146670 -39.821790, -84.145440 -39.821820, -84.145360 -39.821520, -84.145580 -39.820700, -84.146470 -39.819710, -84.146270 -39.818460, -84.148380 -39.818470, -84.148680 -39.817290, -84.146330 -39.817780, -84.145930 -39.818280, -84.145780 -39.818920, -84.144660 -39.818910, -84.144530 -39.820840, -84.143550 -39.822080, -84.143390 -39.822530, -84.141580 -39.822770, -84.140260 -39.822710, -84.139690 -39.826310, -84.135840 -39.826120, -84.136200 -39.823750, -84.136920 -39.822810, -84.138480 -39.821950, -84.138550 -39.821260, -84.142960 -39.821390, -84.142560 -39.820290, -84.143000 -39.818740, -84.137610 -39.818800, -84.136000 -39.818810, -84.134410 -39.819400, -84.133540 -39.819050, -84.132570 -39.818670, -84.130970 -39.818500, -84.129320 -39.818390, -84.128020 -39.818460, -84.126860 -39.819530, -84.125590 -39.820700, -84.119170 -39.821440, -84.118120 -39.825260, -84.116030 -39.825140, -84.113330 -39.824990, -84.111470 -39.824870, -84.109650 -39.824760, -84.109510 -39.825570, -84.110680 -39.826920, -84.112860 -39.827170, -84.112780 -39.828640, -84.111900 -39.829920, -84.111640 -39.832190, -84.109280 -39.831580, -84.106840 -39.831860, -84.106820 -39.833830, -84.108140 -39.834580, -84.108790 -39.835430, -84.109370 -39.836180, -84.108390 -39.837120, -84.107910 -39.837620, -84.102050 -39.838270, -84.101990 -39.838880, -84.099840 -39.838750, -84.098650 -39.838680, -84.098020 -39.838650, -84.095830 -39.838510, -84.094390 -39.838430, -84.092940 -39.838340, -84.094340 -39.823760, -84.095430 -39.817980, -84.099840 -39.818070, -84.104430 -39.818180, -84.104310 -39.819380, -84.105140 -39.820460, -84.105840 -39.819990, -84.105840 -39.819160, -84.105870 -39.817310, -84.107780 -39.817330, -84.110030 -39.816610, -84.110420 -39.816090, -84.111130 -39.815270, -84.113790 -39.813840, -84.114300 -39.815120, -84.113890 -39.816330, -84.114550 -39.817040, -84.115260 -39.817900, -84.118690 -39.818190, -84.119270 -39.818190, -84.119570 -39.814400, -84.123130 -39.814490, -84.123340 -39.812810, -84.123460 -39.810800, -84.120530 -39.810640, -84.118880 -39.810550, -84.118690 -39.808590, -84.121420 -39.808650, -84.122880 -39.808750, -84.123400 -39.809810, -84.124970 -39.811000, -84.126590 -39.810690, -84.130290 -39.811210, -84.133950 -39.811330, -84.135270 -39.811380, -84.136850 -39.811470, -84.136870 -39.812740, -84.142550 -39.813830, -84.142620 -39.814130, -84.145460 -39.814390, -84.145300 -39.815380, -84.147070 -39.814970, -84.147250 -39.814320, -84.150140 -39.813410, -84.149900 -39.812160, -84.149700 -39.811920, -84.152730 -39.811800, -84.150440 -39.809650, -84.153040 -39.804950, -84.156640 -39.801150, -84.158240 -39.800050, -84.163540 -39.798050, -84.161230 -39.797210, -84.162330 -39.796320, -84.160490 -39.796390, -84.159570 -39.797240, -84.158960 -39.797820, -84.157930 -39.798790, -84.156540 -39.799940, -84.155060 -39.799850, -84.155530 -39.797960, -84.153710 -39.797820, -84.154330 -39.794490, -84.155660 -39.792560, -84.153930 -39.792780, -84.152680 -39.792730, -84.147760 -39.792480, -84.147290 -39.790340, -84.145750 -39.790230, -84.144990 -39.789250, -84.144040 -39.788660, -84.143070 -39.788230, -84.142110 -39.787260, -84.141320 -39.787650, -84.139660 -39.788480, -84.137780 -39.789370, -84.136170 -39.789990, -84.135090 -39.790380, -84.134340 -39.790660, -84.132560 -39.791300, -84.130960 -39.791880, -84.130230 -39.792140, -84.129160 -39.792520, -84.127240 -39.792730, -84.125320 -39.793920, -84.124160 -39.794330, -84.123230 -39.794670, -84.121320 -39.795350, -84.120600 -39.795610, -84.118580 -39.796340, -84.117710 -39.796660, -84.115980 -39.797260, -84.115190 -39.797480, -84.117210 -39.801160, -84.116120 -39.801440, -84.115450 -39.802290, -84.115020 -39.803180, -84.114040 -39.802960, -84.111330 -39.802370, -84.110440 -39.802650, -84.112120 -39.805390, -84.112800 -39.807770, -84.111880 -39.808870, -84.110600 -39.809010, -84.109440 -39.809670, -84.109290 -39.809760, -84.104530 -39.809530, -84.103540 -39.809150, -84.102440 -39.808440, -84.101120 -39.809370, -84.097680 -39.809190, -84.095750 -39.809170, -84.096140 -39.803780, -84.096730 -39.797850, -84.096760 -39.797590, -84.096940 -39.795760, -84.096940 -39.793710, -84.097680 -39.793460, -84.100670 -39.792400, -84.108120 -39.789860, -84.115050 -39.787400, -84.120410 -39.785470, -84.127200 -39.783110, -84.131510 -39.781520, -84.131160 -39.780580, -84.131140 -39.779930, -84.132240 -39.779640, -84.133350 -39.779330, -84.135330 -39.778850, -84.135900 -39.779020, -84.136460 -39.778880, -84.138020 -39.777940, -84.136840 -39.777350, -84.136410 -39.776970, -84.134800 -39.774980, -84.134470 -39.774690, -84.132830 -39.773530, -84.131710 -39.773520, -84.129230 -39.773170, -84.127880 -39.772740, -84.127700 -39.772680, -84.127880 -39.769540, -84.129380 -39.770940, -84.132610 -39.771120, -84.132650 -39.772470, -84.134550 -39.771710, -84.135430 -39.771730, -84.135440 -39.770230, -84.136750 -39.768130, -84.136960 -39.765330, -84.137190 -39.763150, -84.135440 -39.763150, -84.132410 -39.763120, -84.130660 -39.762890, -84.128640 -39.762760, -84.127190 -39.762670, -84.126310 -39.760850, -84.126190 -39.759900, -84.124070 -39.760530, -84.123580 -39.759630, -84.122040 -39.759380, -84.123320 -39.757350, -84.120250 -39.756250, -84.120330 -39.754810, -84.120200 -39.753940, -84.119860 -39.751600, -84.119980 -39.750620, -84.120300 -39.749380, -84.120470 -39.748450, -84.120560 -39.747500, -84.120640 -39.746530, -84.124770 -39.747370, -84.125540 -39.746610, -84.123500 -39.745940, -84.125520 -39.743510, -84.128410 -39.743620, -84.128940 -39.742550, -84.129370 -39.742050, -84.130040 -39.739470, -84.130570 -39.738150, -84.129650 -39.737570, -84.128750 -39.737550, -84.124820 -39.737300, -84.120610 -39.737150, -84.118790 -39.737040, -84.117730 -39.736980, -84.114920 -39.736740, -84.113210 -39.736750, -84.110730 -39.736680, -84.110200 -39.736670, -84.108720 -39.736800, -84.109060 -39.734750, -84.109520 -39.734750, -84.109520 -39.733580, -84.109610 -39.730750, -84.109850 -39.729060, -84.114820 -39.729400, -84.116480 -39.729710, -84.118000 -39.730130, -84.119380 -39.729910, -84.119740 -39.727760, -84.122620 -39.727780, -84.124500 -39.727870, -84.125680 -39.727940, -84.126830 -39.727870, -84.127960 -39.727960, -84.129740 -39.728150, -84.130040 -39.727150, -84.130140 -39.725460, -84.130540 -39.722660, -84.133540 -39.722160, -84.134840 -39.722250, -84.135200 -39.721370, -84.136140 -39.721420, -84.136430 -39.722750, -84.137510 -39.722750, -84.138590 -39.722850, -84.139680 -39.722960, -84.141290 -39.722500, -84.142070 -39.720960, -84.149100 -39.721280, -84.149830 -39.720910, -84.152730 -39.720970, -84.152990 -39.719650, -84.153790 -39.716940, -84.155260 -39.717020, -84.157450 -39.717210, -84.160200 -39.717360, -84.160920 -39.718210, -84.161240 -39.719350, -84.163550 -39.724840, -84.163990 -39.727750, -84.164250 -39.729720, -84.164540 -39.731050, -84.166950 -39.732810, -84.169390 -39.733100, -84.169740 -39.733260, -84.171580 -39.734080, -84.173390 -39.734420, -84.174000 -39.734320, -84.175500 -39.734090, -84.177470 -39.733780, -84.178960 -39.733550, -84.179910 -39.733400, -84.181320 -39.733260, -84.182500 -39.733140, -84.184080 -39.733480, -84.186040 -39.732790, -84.187080 -39.732440, -84.187730 -39.732370, -84.188970 -39.731300, -84.190050 -39.730810, -84.190820 -39.730220, -84.191170 -39.729940, -84.191970 -39.729320, -84.194080 -39.727850, -84.195160 -39.727660, -84.196560 -39.727560, -84.197610 -39.727760, -84.199330 -39.727990, -84.204050 -39.728670, -84.204490 -39.726340, -84.206500 -39.727370, -84.206320 -39.728350, -84.205900 -39.728860, -84.208050 -39.728990, -84.210040 -39.729990, -84.212000 -39.731150, -84.212160 -39.731610, -84.213380 -39.732120, -84.215640 -39.732450, -84.217020 -39.732070, -84.217540 -39.731750, -84.223340 -39.728150, -84.227350 -39.723520, -84.228140 -39.714750, -84.230140 -39.711250, -84.236150 -39.703150, -84.236440 -39.703150, -84.238120 -39.703180, -84.242630 -39.703120, -84.248170 -39.703110, -84.252230 -39.702990, -84.252240 -39.705300, -84.252250 -39.706840, -84.252250 -39.708340, -84.252260 -39.709420, -84.252260 -39.710420, -84.252270 -39.711100, -84.252280 -39.712470, -84.253120 -39.714070, -84.253160 -39.715110, -84.253240 -39.717050, -84.253340 -39.719250, -84.253350 -39.720550, -84.258720 -39.719360, -84.263590 -39.719320, -84.263570 -39.716980, -84.263510 -39.715270, -84.261480 -39.715190, -84.261610 -39.712700, -84.258300 -39.712350, -84.258300 -39.710860, -84.258390 -39.709480, -84.258980 -39.708110, -84.259640 -39.707260, -84.261940 -39.707240, -84.262000 -39.706010, -84.264340 -39.705830, -84.263830 -39.704560, -84.263110 -39.704610, -84.264360 -39.702860, -84.267090 -39.702790, -84.267170 -39.701890, -84.267920 -39.701870, -84.270150 -39.701840, -84.271670 -39.701870, -84.272170 -39.702730, -84.272530 -39.702740, -84.275320 -39.702700, -84.276060 -39.702700, -84.277640 -39.702680, -84.279360 -39.702630, -84.280870 -39.702640, -84.280840 -39.704370, -84.279000 -39.705230, -84.279080 -39.706440, -84.279290 -39.708160, -84.279610 -39.709900, -84.277030 -39.710360, -84.276520 -39.711510, -84.277250 -39.712510, -84.275550 -39.714490, -84.278060 -39.715540, -84.278060 -39.716910, -84.280510 -39.717650, -84.279700 -39.718470, -84.279300 -39.719200, -84.280850 -39.719170, -84.280940 -39.717310, -84.282310 -39.717320, -84.282040 -39.716870, -84.281060 -39.716530, -84.281050 -39.715260, -84.281000 -39.713240, -84.285300 -39.713270, -84.285330 -39.714510, -84.290830 -39.714740, -84.290830 -39.715730, -84.290240 -39.716840, -84.287270 -39.716890, -84.287300 -39.721870, -84.286360 -39.721880, -84.284060 -39.721910, -84.284050 -39.720150, -84.280770 -39.720250, -84.279570 -39.720180, -84.278440 -39.720800, -84.277350 -39.720170, -84.275210 -39.719010, -84.275320 -39.716920, -84.276450 -39.716750, -84.276530 -39.715260, -84.274470 -39.715740, -84.273420 -39.715350, -84.272130 -39.716930, -84.271310 -39.717600, -84.272220 -39.718300, -84.273550 -39.719290, -84.273420 -39.720800, -84.269360 -39.721450, -84.263310 -39.721500, -84.263310 -39.722960, -84.265740 -39.722800, -84.266960 -39.722420, -84.268350 -39.722580, -84.267780 -39.724610, -84.267740 -39.725590, -84.265160 -39.726140, -84.264430 -39.726970, -84.263640 -39.727840, -84.263590 -39.725690, -84.261090 -39.726310, -84.259440 -39.726270, -84.260580 -39.728830, -84.259620 -39.728970, -84.259430 -39.729480, -84.257350 -39.731280, -84.258020 -39.731950, -84.258590 -39.732120, -84.259690 -39.732110, -84.261220 -39.731280, -84.261610 -39.732110, -84.262990 -39.732100, -84.267270 -39.732040, -84.267990 -39.729040, -84.269050 -39.729990, -84.269050 -39.730250, -84.268130 -39.732280, -84.268160 -39.733050, -84.269760 -39.733130, -84.270590 -39.732460, -84.272060 -39.732460, -84.272930 -39.732450, -84.273810 -39.731960, -84.274730 -39.731960, -84.275940 -39.731950, -84.277320 -39.732480, -84.279460 -39.733350, -84.279180 -39.734990, -84.279750 -39.735400, -84.279770 -39.735900, -84.281050 -39.736280, -84.281070 -39.737310, -84.275770 -39.737310, -84.275590 -39.739170, -84.274050 -39.739250, -84.273250 -39.739330, -84.271180 -39.739610, -84.268310 -39.740380, -84.268350 -39.741370, -84.268620 -39.742850, -84.269790 -39.742840, -84.271450 -39.742830, -84.271450 -39.744810, -84.272210 -39.746340, -84.271760 -39.747270, -84.271790 -39.747970, -84.273790 -39.747980, -84.273860 -39.749120, -84.270970 -39.749540, -84.269930 -39.749580, -84.268650 -39.749590, -84.268630 -39.750380, -84.268450 -39.751630, -84.267550 -39.751650, -84.268480 -39.753250, -84.268510 -39.754240, -84.267330 -39.754040, -84.267340 -39.754510, -84.268520 -39.754650, -84.269680 -39.754650, -84.272030 -39.754650, -84.275850 -39.754540, -84.278160 -39.750280, -84.278980 -39.750270, -84.280130 -39.750260, -84.281980 -39.750250, -84.282410 -39.750670, -84.282380 -39.752180, -84.282090 -39.753580, -84.282110 -39.755040, -84.282170 -39.759160, -84.279250 -39.758950, -84.277650 -39.758950, -84.277150 -39.760050, -84.276390 -39.760150, -84.276950 -39.761320, -84.278090 -39.761320, -84.279010 -39.761320, -84.280600 -39.760390, -84.282550 -39.759850, -84.284750 -39.759750, -84.285800 -39.760230, -84.285620 -39.761300, -84.284850 -39.761290, -84.285090 -39.762540, -84.289170 -39.762760, -84.289210 -39.764300, -84.291860 -39.764260, -84.292400 -39.770140, -84.297660 -39.770070, -84.297660 -39.764490, -84.292390 -39.764460, -84.292420 -39.762790, -84.295050 -39.762280, -84.296200 -39.761390, -84.301840 -39.761420, -84.301770 -39.763090, -84.310610 -39.763020, -84.310750 -39.765420, -84.310930 -39.768580, -84.311050 -39.770490, -84.311160 -39.772280, -84.311270 -39.774020, -84.311190 -39.775830, -84.308910 -39.775850, -84.308760 -39.772470, -84.302160 -39.772720, -84.301270 -39.775870, -84.300530 -39.775870, -84.298970 -39.775890, -84.297830 -39.775910, -84.295590 -39.775920, -84.292470 -39.776040, -84.292480 -39.777380, -84.300650 -39.777180, -84.302290 -39.777490, -84.303230 -39.778020, -84.304080 -39.778640, -84.305280 -39.778860, -84.306220 -39.778640, -84.307360 -39.779340, -84.307700 -39.780120, -84.306860 -39.781030, -84.306800 -39.781540, -84.301930 -39.781200, -84.301920 -39.783840, -84.292560 -39.783990, -84.282980 -39.784160, -84.282910 -39.785650, -84.280300 -39.784630, -84.271390 -39.781140, -84.270720 -39.780890, -84.268000 -39.780040, -84.265850 -39.779100, -84.264610 -39.779550, -84.265260 -39.779990, -84.265750 -39.781150, -84.267950 -39.783950, -84.270500 -39.786350, -84.271080 -39.786890, -84.270600 -39.787630, -84.270750 -39.788650, -84.270880 -39.790650, -84.271300 -39.794050, -84.271780 -39.794680, -84.269840 -39.795230, -84.268380 -39.795290, -84.268500 -39.797110, -84.269890 -39.797050, -84.269930 -39.797780, -84.268880 -39.797780, -84.268240 -39.798900, -84.264540 -39.798840, -84.263700 -39.799370, -84.263690 -39.800080, -84.261570 -39.799990, -84.256030 -39.800010, -84.253450 -39.799840, -84.252830 -39.797960, -84.252040 -39.797050, -84.252150 -39.796150, -84.252960 -39.794720, -84.253140 -39.792420, -84.253050 -39.790570, -84.252610 -39.789080, -84.251370 -39.788280, -84.249450 -39.788260, -84.248240 -39.788150, -84.246530 -39.788170, -84.246340 -39.788150, -84.244040 -39.788260, -84.244430 -39.790690, -84.244470 -39.791770, -84.243840 -39.792220, -84.243950 -39.791160, -84.242210 -39.791150, -84.239550 -39.791250, -84.239760 -39.793740, -84.238480 -39.793660, -84.239840 -39.798230, -84.242300 -39.798180, -84.243750 -39.798550, -84.244790 -39.799170, -84.244760 -39.800940, -84.244750 -39.801850, -84.243760 -39.802360, -84.243210 -39.802160, -84.241250 -39.802220, -84.240900 -39.802370, -84.239810 -39.803060, -84.238890 -39.805270, -84.236460 -39.804630, -84.235560 -39.805080, -84.235020 -39.804750, -84.235090 -39.803540, -84.235170 -39.801480, -84.235750 -39.802460, -84.236700 -39.802420, -84.238960 -39.801660, -84.238860 -39.800980, -84.235180 -39.800970, -84.235230 -39.799690, -84.234630 -39.798290, -84.233920 -39.798290, -84.232780 -39.798310, -84.231100 -39.798340, -84.230300 -39.798350, -84.229750 -39.796240, -84.229450 -39.795190, -84.229510 -39.794230, -84.230470 -39.794100, -84.232020 -39.793450, -84.232810 -39.793450, -84.235150 -39.793450, -84.235120 -39.792150, -84.233850 -39.792510, -84.232820 -39.792100, -84.231950 -39.791750, -84.230960 -39.791430, -84.229940 -39.791050, -84.230460 -39.793490, -84.229840 -39.794070, -84.229320 -39.794110, -84.228190 -39.794320, -84.225840 -39.793660, -84.223930 -39.793720, -84.222050 -39.793950, -84.222140 -39.794760, -84.222220 -39.795160, -84.222250 -39.796800, -84.222250 -39.797310, -84.220220 -39.797360, -84.219440 -39.798760, -84.219720 -39.800050, -84.219050 -39.800790, -84.218310 -39.800410, -84.217150 -39.800560, -84.215890 -39.800550, -84.214680 -39.800560, -84.213490 -39.800650, -84.212300 -39.800650, -84.211090 -39.800560, -84.209230 -39.800500, -84.207770 -39.800410, -84.207450 -39.800250, -84.205650 -39.800350, -84.205670 -39.803940, -84.205450 -39.805950, -84.206460 -39.808730, -84.217640 -39.813980, -84.218050 -39.814250, -84.220160 -39.816120, -84.221830 -39.817760, -84.222250 -39.818350, -84.221950 -39.820250, -84.222920 -39.826560, -84.217800 -39.826730, -84.217410 -39.826850, -84.215050 -39.826940, -84.215050 -39.828590, -84.210850 -39.829300, -84.210880 -39.832020, -84.210270 -39.834170, -84.208840 -39.834180, -84.207700 -39.834200, -84.207830 -39.837890, -84.199730 -39.837120, -84.199720 -39.835870, -84.201320 -39.835870, -84.201270 -39.834270, -84.201510 -39.828740, -84.201430 -39.827340, -84.202840 -39.826730, -84.203620 -39.822740, -84.205510 -39.821770, -84.205440 -39.820870, -84.201500 -39.820750, -84.200950 -39.819610, -84.200290 -39.818250, -84.200620 -39.817280, -84.201450 -39.816350, -84.199450 -39.814750, -84.198650 -39.812220, -84.198650 -39.811240, -84.198060 -39.809250, -84.198650 -39.808550, -84.198390 -39.807640, -84.196880 -39.806730, -84.197150 -39.805990, -84.197890 -39.805910, -84.197900 -39.804740, -84.196400 -39.804750, -84.196030 -39.803580, -84.195640 -39.802590, -84.194450 -39.801380, -84.194580 -39.800050, -84.194380 -39.799680, -84.194050 -39.799060, -84.194530 -39.797460, -84.194540 -39.797250, -84.193590 -39.796290, -84.193210 -39.794180, -84.193970 -39.793470, -84.196610 -39.792550, -84.196570 -39.792250, -84.195770 -39.791350, -84.195490 -39.791360, -84.195750 -39.789850, -84.195570 -39.788330, -84.194240 -39.787750, -84.189900 -39.790320, -84.188860 -39.790730, -84.187520 -39.791310, -84.186860 -39.791670, -84.185160 -39.792630, -84.183420 -39.793620, -84.179360 -39.795530, -84.176740 -39.796960, -84.176520 -39.798110, -84.177220 -39.799770, -84.177700 -39.799490, -84.185140 -39.797350, -84.184860 -39.800210, -84.183220 -39.801140, -84.182800 -39.801570, -84.182170 -39.801330, -84.181140 -39.801870, -84.179350 -39.801960, -84.179350 -39.803450, -84.178940 -39.804290, -84.177970 -39.804900, -84.176650 -39.805740, -84.177080 -39.805680, -84.175990 -39.808610, -84.176430 -39.810730, -84.175810 -39.811330, -84.176440 -39.813250, -84.179330 -39.814000, -84.179370 -39.816030, -84.179420 -39.817880, -84.176050 -39.817860, -84.176040 -39.820400, -84.177470 -39.820340, -84.178410 -39.820630, -84.179470 -39.820580, -84.179540 -39.823530, -84.177810 -39.823650, -84.177860 -39.826190, -84.178010 -39.827110, -84.177540 -39.827160, -84.177760 -39.832350, -84.177840 -39.834550, -84.176040 -39.834550, -84.175440 -39.836950, -84.173340 -39.838850, -84.172410 -39.840360, -84.172240 -39.842150, -84.173640 -39.843950, -84.172940 -39.845350, -84.171200 -39.844820, -84.169700 -39.844520, -84.167820 -39.845120, -84.167750 -39.846900, -84.167750 -39.848500, -84.167680 -39.850240, -84.169990 -39.850500, -84.172390 -39.850690, -84.173580 -39.848050, -84.173710 -39.848550, -84.173800 -39.850040, -84.173210 -39.850810, -84.172720 -39.851740, -84.171290 -39.853390, -84.170990 -39.854890, -84.170990 -39.855660, -84.170310 -39.857120, -84.169410 -39.856900, -84.157590 -39.856570, -84.158400 -39.852400, -84.158790 -39.852350, -84.159310 -39.849620, -84.159190 -39.847480, -84.159290 -39.845570, -84.159190 -39.844370, -84.159100 -39.843120, -84.158860 -39.842160, -84.159490 -39.841730, -84.159800 -39.841730, -84.162320 -39.841880, -84.163060 -39.835100, -84.163560 -39.830900, -84.163610 -39.830470, -84.158540 -39.830550, -84.162360 -39.829550, -84.165290 -39.828150, -84.166990 -39.827340, -84.168440 -39.826050, -84.168260 -39.825050, -84.166070 -39.824680, -84.167240 -39.824040, -84.166880 -39.822330, -84.166990 -39.821980, -84.167200 -39.820090, -84.165410 -39.820100, -84.164710 -39.820110, -84.164700 -39.821210, -84.165460 -39.822080, -84.164910 -39.823150, -84.165900 -39.823790, -84.165060 -39.826110, -84.163890 -39.825460, -84.161420 -39.825510, -84.159560 -39.823750, -84.158640 -39.822480 Z"/>
  </g>
</svg>
